<?xml version="1.0" standalone="no"?>
<!DOCTYPE svg PUBLIC "-//W3C//DTD SVG 20010904//EN"
 "http://www.w3.org/TR/2001/REC-SVG-20010904/DTD/svg10.dtd">
<svg version="1.0" xmlns="http://www.w3.org/2000/svg"
 width="300.000000pt" height="159.000000pt" viewBox="0 0 300.000000 159.000000"
 preserveAspectRatio="xMidYMid meet">
<metadata>
Created by potrace 1.10, written by Peter Selinger 2001-2011
</metadata>
<g transform="translate(0.000000,159.000000) scale(0.100000,-0.100000)"
fill="#000000" stroke="none">
<path d="M1617 1583 c18 -2 50 -2 70 0 21 2 7 4 -32 4 -38 0 -55 -2 -38 -4z"/>
<path d="M1823 1570 c-37 -22 -50 -40 -29 -40 8 0 16 4 18 10 4 14 90 23 108
11 13 -9 13 -14 -3 -40 -14 -24 -15 -35 -7 -51 9 -17 6 -21 -22 -33 -50 -21
-65 -8 -73 59 -3 34 -7 36 -44 23 -29 -10 -32 -14 -26 -43 4 -17 13 -46 22
-64 8 -18 13 -39 10 -45 -2 -7 5 -21 15 -32 18 -19 19 -19 12 -1 -5 13 -4 17
3 13 6 -4 14 -24 18 -44 4 -21 12 -47 18 -58 6 -11 11 -24 12 -28 0 -4 5 -11
11 -15 9 -6 44 -73 44 -85 0 -3 -8 -8 -17 -10 -14 -4 -12 -5 5 -6 26 -1 27 -9
4 -38 -15 -20 -19 -21 -37 -7 -11 8 -19 18 -17 22 2 3 -2 8 -9 11 -8 2 -10 -2
-6 -12 9 -23 -67 32 -80 58 -6 11 -25 48 -43 83 -51 100 -48 222 8 285 21 24
-3 22 -27 -2 -42 -42 -47 -192 -9 -276 30 -69 93 -145 143 -172 54 -29 139
-38 154 -15 4 7 15 10 24 6 11 -4 17 -1 17 7 1 8 19 32 41 54 29 29 38 46 34
61 -3 13 2 27 10 34 9 8 12 17 7 24 -5 6 -10 31 -11 56 -1 41 -28 106 -86 211
-20 36 -45 56 -46 38 0 -8 -4 -4 -9 9 -5 12 -18 25 -27 29 -10 4 -20 10 -23
13 -13 18 -58 18 -87 0z m152 -70 c21 0 19 -22 -4 -47 -25 -27 -17 -35 17 -17
17 9 28 10 30 4 5 -14 -17 -40 -33 -40 -8 0 -10 -9 -7 -26 3 -18 1 -25 -6 -20
-6 3 -22 -8 -36 -26 -26 -32 -27 -32 -39 -13 -6 11 -17 34 -23 50 -11 29 -10
30 25 41 31 9 36 14 34 39 -1 17 5 34 15 42 15 13 15 14 1 10 -13 -4 -15 -1
-11 15 4 18 6 18 14 4 5 -9 16 -16 23 -16z m-163 -90 c7 -20 11 -22 19 -10 7
11 8 6 4 -17 -4 -19 -2 -34 5 -38 9 -5 10 -1 5 14 -4 12 -2 21 4 21 6 0 11 -7
11 -15 0 -18 32 -89 42 -93 4 -2 17 -23 27 -48 21 -46 37 -62 21 -19 -10 25 1
42 20 30 12 -7 12 -3 4 19 -6 15 -8 15 -20 -1 -12 -16 -15 -16 -24 -3 -16 24
-12 30 26 46 24 10 33 19 27 25 -7 7 -4 22 6 44 18 38 51 54 51 25 0 -11 5
-22 10 -25 17 -11 11 -25 -15 -35 -14 -5 -25 -14 -25 -19 0 -5 -2 -16 -5 -24
-4 -8 0 -14 10 -14 8 0 15 8 15 17 0 19 19 40 36 40 14 0 25 -61 13 -75 -12
-12 -11 -38 1 -30 6 3 10 2 10 -4 0 -5 -5 -11 -12 -13 -6 -2 -13 -13 -14 -24
-5 -34 -10 -53 -16 -60 -4 -3 -4 -12 -1 -20 4 -11 -4 -11 -41 2 -42 15 -54 34
-21 34 15 0 40 38 32 47 -3 2 -10 -5 -16 -16 -8 -14 -19 -20 -34 -17 -20 2
-31 15 -74 82 -10 17 -13 17 -22 4 -7 -9 -11 -10 -11 -3 0 6 4 14 9 17 5 4 5
18 -2 35 -6 17 -14 28 -18 25 -4 -2 -15 15 -24 39 -14 34 -19 38 -24 24 -4
-10 -7 8 -7 40 -1 32 1 49 4 38 2 -11 9 -31 14 -45z m152 -322 c-6 -9 -34 2
-34 13 0 17 -2 24 -12 44 -6 11 3 4 20 -15 16 -19 28 -38 26 -42z m54 3 c17
-11 -29 -46 -71 -53 -24 -5 -28 -2 -25 16 2 15 9 20 26 19 13 -2 25 4 28 12 7
17 22 19 42 6z"/>
<path d="M2913 1583 c-26 -10 -12 -24 20 -21 28 3 32 0 35 -24 5 -43 32 -36
32 8 0 28 -3 35 -15 31 -8 -4 -17 -2 -20 3 -6 10 -31 12 -52 3z"/>
<path d="M2776 1562 c-3 -3 1 -14 11 -24 9 -10 13 -21 10 -25 -13 -13 37 -43
72 -43 41 0 81 9 81 19 0 9 -168 80 -174 73z"/>
<path d="M1980 1554 c0 -3 15 -24 34 -45 46 -55 93 -145 111 -215 l15 -59 -3
51 c-2 29 -14 71 -25 95 l-22 44 27 22 c14 13 29 23 32 23 3 0 12 10 20 23 13
21 13 21 -5 7 -56 -44 -60 -44 -114 10 -45 45 -70 61 -70 44z"/>
<path d="M1318 1392 c29 -24 32 -32 32 -79 0 -59 7 -63 69 -42 38 13 39 22 5
37 -14 7 -22 17 -19 22 10 16 -71 90 -97 90 -22 -1 -21 -2 10 -28z"/>
<path d="M2500 1407 c0 -7 92 -38 98 -33 2 3 -5 9 -15 14 -22 12 -83 25 -83
19z"/>
<path d="M2375 1361 c3 -6 14 -11 24 -11 10 0 35 -7 54 -15 43 -18 47 -18 47
-5 0 15 -38 31 -87 37 -31 3 -43 1 -38 -6z"/>
<path d="M2510 1331 c0 -5 7 -12 16 -15 9 -4 14 -13 10 -21 -7 -20 47 -21 64
0 10 12 5 17 -25 30 -42 17 -65 19 -65 6z"/>
<path d="M905 1280 c4 -19 14 -44 22 -55 12 -18 13 -17 7 15 -4 19 -13 44 -21
55 -14 18 -14 17 -8 -15z"/>
<path d="M1202 1233 c-20 -10 -29 -20 -24 -25 11 -11 49 9 56 29 6 16 8 16
-32 -4z"/>
<path d="M153 1217 c6 -13 17 -24 24 -24 18 0 16 11 -5 30 -26 23 -32 21 -19
-6z"/>
<path d="M1790 1173 c-31 -12 -40 -24 -27 -37 8 -10 21 -11 45 -4 19 5 40 7
48 4 9 -4 12 -2 8 5 -4 7 -23 9 -50 5 -26 -3 -44 -2 -44 4 0 6 6 10 14 10 8 0
18 5 21 10 7 11 7 11 -15 3z"/>
<path d="M975 1065 c-51 -20 -85 -52 -85 -81 0 -13 -16 -39 -36 -60 -35 -34
-36 -38 -32 -90 6 -67 29 -101 91 -133 52 -26 177 -42 177 -22 0 6 7 11 15 11
8 0 15 5 15 11 0 5 5 7 10 4 6 -3 10 -1 10 4 0 6 5 11 11 11 12 0 49 38 49 50
0 5 -7 10 -15 14 -23 8 -18 25 11 36 14 6 22 15 19 20 -7 12 12 40 27 40 6 0
7 -11 4 -26 -5 -17 0 -33 14 -51 11 -14 20 -21 20 -15 0 6 -4 13 -9 16 -10 7
-13 86 -3 86 11 0 6 61 -8 95 -10 25 -13 27 -21 14 -6 -11 -4 -29 7 -54 8 -20
14 -38 12 -40 -11 -8 -68 -23 -68 -17 0 12 -102 45 -150 50 -25 2 -57 5 -72 6
-16 2 -37 4 -48 5 -58 3 15 89 96 111 58 16 161 7 212 -19 52 -27 83 -90 84
-173 0 -39 2 -40 10 -18 14 36 5 123 -16 155 -28 42 -95 66 -199 71 -67 3
-103 0 -132 -11z m-30 -161 c8 -13 23 -24 33 -24 24 -1 72 -29 52 -31 -8 -1
17 -6 55 -13 46 -7 71 -8 74 -1 6 14 24 25 33 19 14 -9 8 -22 -13 -27 -18 -5
-21 -11 -16 -34 7 -37 -4 -55 -37 -59 -15 -1 -40 -9 -57 -18 -16 -8 -37 -12
-46 -9 -8 3 -19 0 -24 -8 -5 -8 -9 -9 -9 -3 0 7 -9 14 -20 17 -11 3 -20 1 -20
-4 0 -4 -20 5 -44 22 -51 34 -72 80 -61 135 4 24 13 38 31 44 13 5 24 14 24
19 0 17 28 1 45 -25z m118 0 c17 -4 37 -10 43 -15 5 -4 19 -6 31 -3 24 7 42
-13 19 -22 -25 -10 -51 -12 -61 -5 -5 4 -36 15 -67 26 -60 19 -80 42 -28 31
17 -3 45 -9 63 -12z"/>
<path d="M890 890 c0 -5 6 -10 14 -10 8 0 21 -6 28 -12 7 -7 29 -14 48 -15
l35 -1 -40 14 c-22 8 -44 19 -49 24 -13 13 -36 13 -36 0z"/>
<path d="M1100 1032 c-21 -10 -70 -54 -70 -64 0 -13 17 -9 34 8 9 8 20 12 26
9 5 -3 10 -1 10 4 0 6 -5 11 -11 11 -5 0 -7 5 -3 11 3 6 17 9 31 6 14 -2 22 0
20 6 -4 14 -18 17 -37 9z"/>
<path d="M1630 1006 c0 -4 14 -24 31 -46 31 -39 48 -90 49 -147 0 -18 4 -33 9
-33 28 0 8 133 -27 179 -19 26 -62 58 -62 47z"/>
<path d="M1568 973 c-23 -6 -23 -10 7 -45 14 -16 27 -42 30 -56 11 -53 32
-106 43 -110 17 -5 15 27 -4 45 -9 10 -13 25 -10 39 3 12 2 26 -4 29 -5 3 -10
12 -10 18 0 7 7 3 15 -7 21 -28 29 -13 11 21 -16 29 -52 74 -58 72 -1 -1 -11
-3 -20 -6z"/>
<path d="M1510 919 c0 -14 13 -36 30 -52 17 -16 30 -24 30 -17 0 17 -27 65
-44 79 -14 12 -16 10 -16 -10z"/>
<path d="M2909 911 c13 -10 32 -29 42 -42 16 -20 19 -21 19 -6 0 23 -44 67
-67 67 -15 0 -14 -3 6 -19z"/>
<path d="M2708 879 l-33 -31 36 21 c55 32 99 27 154 -15 26 -19 50 -33 53 -30
12 13 -37 62 -74 73 -68 20 -100 16 -136 -18z"/>
<path d="M2100 861 c-8 -5 -11 -14 -6 -18 5 -4 11 -2 13 5 7 19 54 14 103 -10
32 -17 53 -38 77 -78 31 -52 45 -120 24 -120 -15 0 -67 -57 -63 -69 2 -6 -1
-11 -8 -11 -6 0 -8 -5 -5 -10 4 -6 16 1 28 17 12 15 34 39 49 52 40 34 39 90
-4 155 -18 27 -45 58 -59 68 -29 22 -127 34 -149 19z"/>
<path d="M2020 854 c0 -11 29 -34 44 -34 9 0 16 7 16 15 0 8 -6 12 -14 9 -8
-3 -17 -1 -21 5 -6 12 -25 15 -25 5z"/>
<path d="M1944 829 c-56 -28 -77 -141 -34 -187 11 -12 20 -25 20 -30 0 -5 9
-17 20 -27 20 -18 21 -18 34 1 13 17 12 20 -2 26 -9 3 -32 20 -49 37 -51 47
-44 117 16 168 28 24 27 27 -5 12z"/>
<path d="M2110 821 c0 -6 5 -13 10 -16 6 -3 10 -13 10 -22 0 -25 40 -53 76
-53 28 0 31 3 26 23 -5 18 -7 19 -10 5 -4 -19 -22 -25 -22 -8 0 6 -6 10 -13
10 -7 0 -22 7 -33 16 -18 15 -17 15 14 10 42 -7 34 9 -15 29 -42 18 -43 18
-43 6z"/>
<path d="M2031 782 c-7 -14 -5 -21 11 -31 13 -8 18 -19 15 -31 -3 -11 0 -18 6
-17 6 1 19 -12 28 -30 36 -71 48 -84 68 -71 10 6 26 8 36 4 17 -6 17 -7 -1
-20 -10 -8 -24 -12 -31 -9 -7 3 -13 -1 -13 -10 0 -21 43 -10 59 16 12 18 11
22 -5 34 -22 16 -46 17 -63 1 -11 -11 -13 -10 -8 4 3 9 3 18 -1 20 -4 2 -20
25 -36 51 -20 36 -26 55 -21 77 6 26 4 30 -14 30 -11 0 -25 -8 -30 -18z"/>
<path d="M564 736 c-6 -26 5 -45 29 -46 12 0 8 35 -7 56 -14 18 -15 18 -22
-10z"/>
<path d="M1556 738 c10 -15 56 -30 66 -20 6 6 -7 13 -31 20 -25 6 -39 6 -35 0z"/>
<path d="M1940 730 c0 -6 11 -8 27 -5 15 2 31 -1 36 -8 6 -9 7 -8 4 3 -4 17
-67 27 -67 10z"/>
<path d="M2164 714 c3 -9 9 -27 12 -40 3 -13 10 -21 15 -18 13 7 51 -15 44
-27 -4 -5 -1 -9 5 -9 6 0 13 7 16 15 3 8 15 17 27 21 l21 7 -22 17 c-11 10
-18 20 -15 24 4 3 1 6 -5 6 -16 0 -15 -10 3 -30 13 -15 11 -16 -21 -17 -31 -1
-37 3 -46 27 -5 16 -16 31 -25 34 -11 5 -14 2 -9 -10z"/>
<path d="M1985 662 c1 -9 9 -16 17 -14 9 1 18 -4 22 -13 8 -22 26 -18 26 6 0
11 -4 17 -10 14 -6 -4 -22 0 -34 9 -22 14 -24 14 -21 -2z"/>
<path d="M2081 609 c-12 -13 -19 -29 -17 -36 3 -6 0 -14 -7 -17 -7 -2 -5 -5 5
-5 22 -1 34 19 18 29 -9 5 -6 12 11 23 12 9 20 19 17 22 -3 4 -16 -4 -27 -16z"/>
<path d="M1993 570 c3 -11 0 -20 -6 -20 -27 0 51 -40 90 -46 43 -6 120 3 110
13 -3 3 -30 6 -59 8 -29 2 -68 7 -87 12 -30 7 -32 10 -17 22 23 19 20 26 -10
29 -22 2 -25 -1 -21 -18z"/>
<path d="M2557 474 c-12 -12 4 -24 34 -24 19 0 29 5 29 15 0 15 -50 22 -63 9z"/>
<path d="M905 463 c-16 -3 -42 -16 -56 -29 -16 -15 -32 -22 -42 -18 -30 11
-83 -32 -107 -89 -21 -48 -22 -57 -11 -111 20 -95 52 -149 119 -195 33 -23 74
-25 78 -3 1 7 0 8 -3 2 -9 -18 -28 -11 -67 25 -21 19 -36 35 -33 35 3 0 -4 11
-17 23 -24 24 -56 116 -56 159 1 58 70 152 99 134 5 -4 12 -2 16 3 3 6 12 8
20 4 9 -3 15 1 15 11 0 9 15 20 40 27 22 7 40 16 40 21 0 4 -1 7 -2 7 -2 -1
-16 -4 -33 -6z"/>
<path d="M1015 441 c40 -18 87 -68 136 -146 48 -77 58 -120 46 -205 -4 -25 -4
-38 -1 -30 4 8 13 22 21 32 10 11 13 32 10 72 -3 31 -1 56 3 56 5 0 25 -16 46
-35 20 -19 39 -33 42 -30 5 5 -78 84 -90 85 -4 0 -17 18 -28 41 -12 22 -37 49
-56 61 -23 14 -34 27 -34 44 0 27 -71 74 -111 74 -20 0 -17 -4 16 -19z"/>
<path d="M2070 443 c0 -13 70 -56 78 -49 9 10 -44 56 -64 56 -8 0 -14 -3 -14
-7z"/>
<path d="M907 396 c7 -35 30 -53 46 -37 9 10 8 11 -5 6 -17 -7 -19 -4 -22 34
-1 8 -6 16 -12 18 -7 2 -10 -6 -7 -21z"/>
<path d="M823 379 c-8 -8 -7 -22 4 -48 21 -50 37 -64 30 -26 -5 27 -4 28 9 10
19 -25 18 -32 -6 -40 -11 -3 -20 -9 -20 -13 1 -12 27 -42 37 -42 5 0 18 -16
29 -35 12 -23 21 -30 26 -22 4 7 8 8 8 2 -1 -15 -26 -45 -39 -45 -6 0 -11 -5
-11 -11 0 -7 8 -6 23 4 26 17 42 9 71 -35 10 -15 22 -25 27 -22 15 9 49 -15
42 -32 -4 -10 -9 -12 -16 -5 -10 10 -37 4 -37 -8 0 -12 62 -4 70 9 5 8 19 10
41 6 32 -7 33 -6 15 9 -11 8 -28 15 -38 15 -11 0 -24 4 -31 10 -69 55 -89 79
-118 140 -19 39 -37 70 -41 70 -3 0 0 -14 9 -31 8 -16 12 -33 9 -36 -8 -9 -28
47 -32 92 l-3 40 18 -22 c20 -23 48 -32 35 -11 -5 7 0 9 14 6 27 -8 55 13 47
34 -6 15 -8 15 -26 -3 -23 -23 -38 -24 -67 -3 -12 8 -22 12 -22 7 0 -10 -20
19 -20 30 0 5 6 5 13 1 6 -4 9 -3 4 1 -12 14 -43 15 -54 4z"/>
<path d="M1020 363 c0 -13 5 -23 10 -23 6 0 9 4 8 9 -3 10 2 11 30 10 10 0 12
-3 5 -6 -7 -2 -13 -9 -13 -14 0 -4 7 -5 17 -2 11 4 14 3 9 -5 -4 -7 -2 -12 3
-12 16 0 13 15 -9 43 -26 32 -60 32 -60 0z"/>
<path d="M787 374 c-4 -4 -4 -18 -1 -30 5 -19 2 -24 -14 -24 -11 0 -23 -7 -26
-16 -9 -23 -8 -24 10 -17 14 5 16 1 11 -23 -3 -16 -4 -23 -1 -16 3 6 9 10 14
7 5 -3 6 8 4 25 -4 21 -1 30 8 30 10 0 13 10 12 31 -2 33 -7 43 -17 33z"/>
<path d="M2575 369 c-4 -6 -5 -13 -2 -16 8 -7 47 7 47 18 0 13 -37 11 -45 -2z"/>
<path d="M993 266 c7 -13 15 -22 18 -20 4 2 6 -4 5 -13 0 -9 5 -18 13 -21 10
-3 11 2 6 18 -5 17 -4 21 6 15 8 -4 1 4 -16 19 -38 32 -46 33 -32 2z"/>
<path d="M1299 237 c19 -21 39 -37 44 -37 14 0 -11 28 -47 52 l-31 21 34 -36z"/>
<path d="M948 255 c-8 -9 26 -74 38 -75 10 0 24 21 24 35 0 2 -10 5 -22 7 -13
2 -23 8 -23 15 0 14 -10 25 -17 18z"/>
<path d="M771 218 c-6 -15 -5 -24 3 -27 6 -2 14 -9 18 -15 5 -7 8 -6 8 3 0 8
8 20 18 28 9 8 11 12 5 8 -8 -4 -13 0 -13 9 0 24 -30 19 -39 -6z"/>
<path d="M1041 182 c-6 -12 -16 -22 -22 -22 -6 0 -7 5 -3 12 4 7 3 8 -4 4 -16
-10 -15 -20 7 -44 23 -28 35 -28 21 -2 -12 23 -3 51 10 30 11 -18 19 1 10 25
-7 19 -7 19 -19 -3z"/>
<path d="M1165 188 c-4 -10 -5 -25 -1 -33 3 -8 -1 -18 -8 -22 -8 -5 -10 -17
-6 -33 5 -22 7 -20 19 21 14 50 11 100 -4 67z"/>
<path d="M847 93 c-9 -14 14 -33 36 -29 24 3 30 13 13 19 -9 4 -19 1 -22 -5
-5 -8 -10 -5 -14 7 -4 11 -9 14 -13 8z"/>
<path d="M923 30 c-10 -27 -9 -30 7 -30 14 0 18 6 16 25 -4 37 -10 38 -23 5z"/>
</g>
</svg>
