<?xml version="1.0" standalone="no"?>
<!DOCTYPE svg PUBLIC "-//W3C//DTD SVG 20010904//EN"
 "http://www.w3.org/TR/2001/REC-SVG-20010904/DTD/svg10.dtd">
<svg version="1.0" xmlns="http://www.w3.org/2000/svg"
 width="225.000000pt" height="225.000000pt" viewBox="0 0 225.000000 225.000000"
 preserveAspectRatio="xMidYMid meet">
<metadata>
Created by potrace 1.10, written by Peter Selinger 2001-2011
</metadata>
<g transform="translate(0.000000,225.000000) scale(0.100000,-0.100000)"
fill="#000000" stroke="none">
<path d="M985 2133 c-166 -19 -302 -80 -404 -181 -188 -186 -295 -454 -308
-772 -18 -450 175 -852 482 -1000 99 -48 170 -62 271 -56 97 6 251 56 238 77
-3 5 -17 3 -32 -5 -73 -37 -222 -61 -222 -35 0 5 -4 7 -10 4 -14 -9 -217 101
-207 112 2 2 24 -5 48 -16 85 -37 290 -59 390 -41 409 74 661 669 518 1225
-72 279 -231 482 -444 565 -52 21 -76 24 -182 23 -148 -1 -216 -14 -310 -59
-81 -39 -143 -101 -194 -197 -33 -63 -46 -71 -28 -17 13 36 12 37 -51 72 -38
21 -34 31 40 106 66 67 119 97 205 116 59 14 149 43 230 76 21 9 19 9 -30 3z
m309 -145 c210 -69 379 -291 449 -592 31 -136 31 -401 -1 -544 -88 -392 -349
-641 -647 -617 -38 3 -95 7 -125 9 -66 4 -158 37 -193 70 -14 13 -28 22 -30
19 -3 -2 -15 10 -27 26 -12 17 -26 31 -31 31 -17 0 -97 93 -137 160 -189 316
-199 756 -25 1108 31 63 38 72 48 58 15 -20 30 -8 70 53 15 25 47 66 71 91 24
26 41 49 38 53 -17 17 159 98 210 96 12 0 -6 -8 -39 -18 -63 -18 -153 -59
-162 -74 -3 -5 -2 -8 3 -5 71 34 127 58 130 55 2 -1 -22 -23 -53 -47 -103 -82
-213 -254 -262 -410 -39 -124 -50 -204 -52 -377 -2 -187 12 -277 62 -420 54
-153 158 -311 254 -385 27 -22 58 -45 67 -53 13 -11 20 -11 34 -1 16 12 11 18
-50 66 -150 118 -256 301 -307 530 -34 154 -20 467 27 615 30 92 112 249 164
313 28 34 81 85 117 112 36 28 61 50 56 50 -20 0 -128 -86 -170 -136 -23 -27
-42 -44 -43 -38 0 23 141 152 202 185 98 51 228 58 352 17z m-780 -255 c-20
-35 -34 -67 -30 -70 3 -4 6 -2 6 4 0 15 90 136 96 130 3 -3 -11 -28 -31 -55
-79 -111 -147 -317 -166 -508 -30 -293 66 -626 233 -809 29 -32 55 -52 61 -48
7 3 9 3 5 -1 -7 -9 77 -86 93 -86 6 0 7 -4 4 -10 -10 -16 45 -58 140 -105 50
-25 81 -45 71 -45 -47 0 -172 75 -245 147 -41 40 -76 73 -79 73 -6 0 44 -67
77 -103 14 -16 41 -38 60 -50 60 -37 15 -30 -61 9 -51 27 -99 63 -159 124
-135 133 -213 285 -267 515 -35 149 -36 386 -3 542 32 155 89 300 158 404 24
37 26 38 49 22 l24 -15 -36 -65z m208 10 c-58 -83 -118 -234 -148 -375 -25
-115 -25 -371 0 -486 52 -245 169 -450 316 -553 67 -48 74 -68 8 -24 -125 83
-234 241 -298 433 -110 330 -67 729 107 1005 13 22 27 36 30 34 3 -3 -4 -18
-15 -34z"/>
<path d="M855 1618 c-13 -20 -15 -81 -15 -494 1 -542 -6 -508 91 -502 72 4 79
19 79 169 l0 116 38 7 c20 3 99 6 175 6 l137 0 0 -123 c0 -145 6 -157 82 -157
75 0 73 -12 73 496 0 419 -1 443 -19 463 -14 15 -31 21 -61 21 -66 0 -74 -15
-74 -148 0 -63 -2 -116 -5 -119 -6 -7 -339 -4 -346 3 -3 3 -7 63 -9 132 -1 70
-8 133 -13 140 -6 7 -33 12 -64 12 -43 0 -56 -4 -69 -22z m123 -153 l-3 -145
192 0 c105 0 198 -3 207 -6 14 -5 16 10 16 135 l0 141 50 0 50 0 0 -460 0
-460 -50 0 -50 0 0 140 0 140 -207 0 -208 0 3 -150 4 -150 -56 0 -56 0 0 480
0 480 56 0 55 0 -3 -145z"/>
<path d="M980 1135 l0 -75 210 0 210 0 0 75 0 75 -210 0 -210 0 0 -75z m288
35 l92 0 0 -40 0 -40 -175 0 -175 0 0 46 0 47 83 -6 c45 -4 124 -7 175 -7z"/>
<path d="M1145 2130 c-4 -6 11 -10 39 -10 90 0 279 -60 229 -73 -10 -3 -5 -5
14 -6 17 0 40 -4 50 -7 16 -5 16 -4 -2 11 -73 61 -308 121 -330 85z"/>
<path d="M1007 2105 c-48 -18 -161 -77 -165 -87 -2 -5 -9 -8 -17 -8 -7 0 -18
-7 -25 -15 -20 -24 -2 -18 74 24 39 21 99 49 134 61 74 27 105 23 246 -33 47
-19 86 -33 86 -31 0 7 -126 67 -179 85 -63 22 -101 23 -154 4z"/>
<path d="M1420 2015 l-75 -13 73 -1 c86 -1 113 -16 187 -103 103 -120 186
-295 226 -478 32 -141 34 -426 5 -565 -40 -192 -120 -369 -224 -494 -67 -81
-110 -111 -155 -111 -50 0 -52 11 -5 38 58 33 121 95 172 167 49 68 59 85 53
85 -3 0 -19 -22 -37 -49 -36 -57 -164 -182 -209 -206 -17 -8 -31 -20 -31 -25
0 -6 -9 -10 -20 -10 -12 0 -38 -9 -59 -20 -21 -10 -42 -16 -46 -12 -5 4 -5 1
-1 -5 5 -10 17 -8 48 8 34 18 52 20 100 15 33 -4 65 -9 72 -12 17 -6 136 112
186 186 150 220 227 542 200 834 -21 223 -93 438 -199 594 -39 59 -167 194
-180 191 -3 -1 -40 -8 -81 -14z"/>
<path d="M1445 210 c-16 -4 -26 -8 -21 -9 20 -2 -82 -48 -124 -55 -24 -4 -49
-11 -55 -16 -5 -4 -26 -10 -45 -13 -31 -3 -30 -4 11 -5 71 -3 199 42 264 92
22 17 16 18 -30 6z"/>
<path d="M1110 116 c0 -9 40 -13 46 -5 3 5 -6 9 -20 9 -14 0 -26 -2 -26 -4z"/>
</g>
</svg>
