<?xml version="1.0" standalone="no"?>
<!DOCTYPE svg PUBLIC "-//W3C//DTD SVG 20010904//EN"
 "http://www.w3.org/TR/2001/REC-SVG-20010904/DTD/svg10.dtd">
<svg version="1.0" xmlns="http://www.w3.org/2000/svg"
 width="300.000000pt" height="313.000000pt" viewBox="0 0 300.000000 313.000000"
 preserveAspectRatio="xMidYMid meet">
<metadata>
Created by potrace 1.10, written by Peter Selinger 2001-2011
</metadata>
<g transform="translate(0.000000,313.000000) scale(0.100000,-0.100000)"
fill="#000000" stroke="none">
<path d="M231 3108 c-1 -25 3 -28 29 -28 17 0 30 4 30 9 0 4 -11 6 -24 4 -19
-4 -25 0 -29 18 -4 22 -4 22 -6 -3z"/>
<path d="M371 3108 c-1 -25 3 -28 28 -28 17 0 32 4 35 8 3 5 -8 6 -24 4 -23
-3 -29 0 -33 19 -4 22 -4 22 -6 -3z"/>
<path d="M1081 3108 c-1 -26 2 -28 37 -26 36 1 36 1 5 5 -23 3 -33 10 -36 26
-4 18 -5 17 -6 -5z"/>
<path d="M1791 3108 c-1 -25 3 -28 29 -28 17 0 30 4 30 9 0 4 -11 6 -24 4 -19
-4 -25 0 -29 18 -4 22 -4 22 -6 -3z"/>
<path d="M2410 3109 c0 -17 -5 -20 -25 -17 -14 3 -25 1 -25 -3 0 -5 14 -9 30
-9 25 0 30 4 30 25 0 14 -2 25 -5 25 -3 0 -5 -10 -5 -21z"/>
<path d="M2501 3108 c-1 -25 3 -28 29 -28 22 0 30 5 29 18 0 10 -3 12 -6 5 -8
-22 -41 -15 -46 10 -4 19 -4 18 -6 -5z"/>
<path d="M2781 3108 c-1 -26 2 -28 34 -28 19 0 35 4 35 10 0 5 -13 7 -29 4
-25 -5 -30 -3 -34 17 -4 22 -4 22 -6 -3z"/>
<path d="M160 3040 c0 -27 3 -30 30 -30 27 0 30 3 30 30 0 27 -3 30 -30 30
-27 0 -30 -3 -30 -30z m50 0 c0 -13 -7 -20 -20 -20 -13 0 -20 7 -20 20 0 13 7
20 20 20 13 0 20 -7 20 -20z"/>
<path d="M300 3040 c0 -28 3 -30 36 -30 19 0 33 4 30 9 -3 4 -17 6 -32 3 -39
-7 -29 31 11 39 29 6 29 7 -7 8 -36 1 -38 -1 -38 -29z"/>
<path d="M440 3040 c0 -25 4 -30 23 -29 16 1 18 2 5 6 -10 2 -18 13 -18 24 0
14 7 19 26 19 23 0 26 -3 22 -25 -3 -14 -1 -25 3 -25 5 0 9 14 9 30 0 28 -3
30 -35 30 -32 0 -35 -2 -35 -30z"/>
<path d="M754 3063 c24 -4 27 -8 23 -29 -2 -13 0 -24 4 -24 5 0 9 14 9 30 0
27 -3 30 -32 29 -32 -2 -32 -2 -4 -6z"/>
<path d="M1010 3040 c0 -27 3 -30 30 -30 17 0 30 4 30 9 0 4 -11 6 -25 3 -27
-5 -34 15 -13 36 9 9 8 12 -5 12 -12 0 -17 -8 -17 -30z"/>
<path d="M1150 3040 c0 -28 2 -30 38 -28 36 1 36 1 5 5 -25 3 -33 9 -33 24 0
24 35 26 49 2 9 -16 10 -16 11 5 0 19 -5 22 -35 22 -32 0 -35 -2 -35 -30z"/>
<path d="M1348 3045 c4 -21 1 -25 -21 -25 -16 0 -27 7 -30 18 -4 13 -5 11 -6
-5 -1 -20 4 -23 34 -23 32 0 35 2 35 30 0 17 -4 30 -9 30 -4 0 -6 -11 -3 -25z"/>
<path d="M1488 3044 c4 -25 3 -26 -22 -22 -14 3 -26 1 -26 -3 0 -5 14 -9 30
-9 27 0 30 3 30 30 0 17 -4 30 -9 30 -4 0 -6 -12 -3 -26z"/>
<path d="M1580 3040 c0 -27 3 -30 30 -30 27 0 30 3 30 30 0 17 -4 30 -9 30 -4
0 -6 -11 -3 -25 3 -20 0 -25 -17 -25 -23 0 -30 35 -8 43 7 3 5 6 -5 6 -13 1
-18 -7 -18 -29z"/>
<path d="M1720 3040 c0 -27 3 -30 30 -30 17 0 30 4 30 9 0 4 -11 6 -25 3 -20
-3 -25 0 -25 16 0 11 6 23 13 25 7 3 5 6 -5 6 -13 1 -18 -7 -18 -29z"/>
<path d="M2000 3040 c0 -28 3 -30 35 -30 32 0 35 2 35 30 0 28 -3 30 -35 30
-32 0 -35 -2 -35 -30z m60 0 c0 -21 -33 -29 -45 -10 -9 15 4 30 26 30 12 0 19
-7 19 -20z"/>
<path d="M2174 3063 c24 -4 27 -8 23 -29 -2 -13 0 -24 4 -24 5 0 9 14 9 30 0
27 -3 30 -32 29 -32 -2 -32 -2 -4 -6z"/>
<path d="M2570 3040 c0 -22 5 -30 18 -29 10 0 12 3 5 6 -7 2 -13 14 -13 25 0
16 5 19 25 16 14 -3 25 -1 25 3 0 5 -13 9 -30 9 -27 0 -30 -3 -30 -30z"/>
<path d="M2710 3040 c0 -26 3 -30 28 -29 23 2 24 2 5 6 -37 7 -30 41 10 46 31
4 31 4 -5 5 -36 2 -38 0 -38 -28z"/>
<path d="M2860 3061 c0 -4 11 -6 25 -3 21 3 25 0 25 -18 0 -18 -4 -21 -25 -18
-14 3 -25 1 -25 -3 0 -5 14 -9 30 -9 27 0 30 3 30 30 0 27 -3 30 -30 30 -16 0
-30 -4 -30 -9z"/>
<path d="M583 3025 c0 -10 10 -15 34 -15 25 0 33 4 32 18 0 10 -3 12 -6 5 -6
-16 -35 -17 -49 -3 -7 7 -11 6 -11 -5z"/>
<path d="M90 2991 c0 -4 11 -6 25 -3 20 3 25 0 25 -17 0 -23 -35 -30 -43 -8
-3 7 -6 5 -6 -5 -1 -13 7 -18 29 -18 27 0 30 3 30 30 0 27 -3 30 -30 30 -16 0
-30 -4 -30 -9z"/>
<path d="M230 2970 c0 -16 4 -30 9 -30 4 0 6 11 3 25 -3 20 0 25 16 25 11 0
23 -6 25 -12 3 -8 6 -6 6 5 1 12 -7 17 -29 17 -27 0 -30 -3 -30 -30z"/>
<path d="M1080 2970 c0 -16 4 -30 9 -30 4 0 6 12 3 26 -4 25 -3 26 22 22 14
-3 26 -1 26 3 0 5 -13 9 -30 9 -27 0 -30 -3 -30 -30z"/>
<path d="M1408 2993 c24 -9 13 -41 -15 -46 -26 -4 -26 -4 5 -6 29 -1 32 2 32
29 0 22 -5 30 -17 29 -11 0 -13 -3 -5 -6z"/>
<path d="M1510 2992 c0 -5 10 -8 22 -8 14 1 24 -6 26 -18 3 -15 -1 -18 -22
-14 -14 3 -26 1 -26 -3 0 -5 14 -9 30 -9 27 0 30 3 30 30 0 27 -3 30 -30 30
-16 0 -30 -4 -30 -8z"/>
<path d="M1650 2970 c0 -27 3 -30 30 -30 27 0 30 3 30 30 0 27 -3 30 -30 30
-27 0 -30 -3 -30 -30z m50 0 c0 -13 -7 -20 -20 -20 -13 0 -20 7 -20 20 0 13 7
20 20 20 13 0 20 -7 20 -20z"/>
<path d="M1790 2970 c0 -16 4 -30 8 -30 5 0 8 10 8 22 -1 15 7 24 24 29 23 6
23 7 -7 8 -30 1 -33 -2 -33 -29z"/>
<path d="M1975 2986 c11 -8 16 -19 12 -30 -4 -9 -2 -16 3 -16 6 0 10 14 10 30
0 24 -4 30 -22 30 -21 0 -21 -1 -3 -14z"/>
<path d="M2640 2970 c0 -28 3 -30 35 -30 19 0 35 4 35 10 0 5 -13 7 -30 4 -26
-6 -30 -4 -30 15 0 16 6 21 24 21 13 0 27 -6 29 -12 3 -8 6 -6 6 5 1 13 -7 17
-34 17 -32 0 -35 -2 -35 -30z"/>
<path d="M2781 2968 c2 -31 2 -31 6 -5 3 21 10 27 28 27 14 0 25 -7 28 -17 4
-14 5 -12 6 5 1 19 -4 22 -34 22 -33 0 -35 -2 -34 -32z"/>
<path d="M160 2900 c0 -22 5 -30 18 -29 10 0 12 3 5 6 -7 2 -13 14 -13 25 0
17 4 19 25 14 14 -4 25 -2 25 4 0 5 -13 10 -30 10 -27 0 -30 -3 -30 -30z"/>
<path d="M300 2900 c0 -16 4 -30 9 -30 4 0 6 11 4 24 -4 22 -1 25 28 29 l34 4
-37 1 c-36 2 -38 0 -38 -28z"/>
<path d="M441 2913 c0 -11 3 -13 6 -5 2 6 15 12 28 12 18 0 25 -6 28 -27 4
-26 4 -26 6 5 1 30 -1 32 -34 32 -27 0 -35 -4 -34 -17z"/>
<path d="M1151 2913 c0 -11 3 -13 6 -5 2 6 16 12 30 12 22 0 25 -4 21 -25 -3
-14 -1 -25 3 -25 5 0 9 14 9 30 0 28 -3 30 -35 30 -27 0 -35 -4 -34 -17z"/>
<path d="M1310 2923 c14 -2 31 -12 38 -21 11 -14 12 -13 12 6 0 19 -5 22 -37
21 -27 -1 -31 -3 -13 -6z"/>
<path d="M1441 2913 c0 -11 3 -13 6 -5 2 6 14 12 25 12 16 0 19 -5 16 -25 -3
-14 -1 -25 3 -25 5 0 9 14 9 30 0 27 -3 30 -30 30 -22 0 -30 -5 -29 -17z"/>
<path d="M1720 2900 c0 -25 4 -30 23 -29 16 1 18 2 5 6 -10 2 -18 13 -18 24 0
24 37 26 43 2 4 -14 5 -12 6 5 1 18 -4 22 -29 22 -27 0 -30 -3 -30 -30z"/>
<path d="M1860 2900 c0 -16 4 -30 8 -30 5 0 8 10 8 22 -1 26 32 38 45 16 7
-10 9 -9 9 5 0 13 -8 17 -35 17 -32 0 -35 -2 -35 -30z"/>
<path d="M2000 2900 c0 -16 5 -30 11 -30 5 0 8 4 5 9 -10 16 5 41 24 41 10 0
21 -6 23 -12 3 -8 6 -6 6 5 1 13 -7 17 -34 17 -32 0 -35 -2 -35 -30z"/>
<path d="M2290 2921 c0 -4 12 -6 26 -3 25 4 26 3 22 -22 -3 -14 -1 -26 3 -26
5 0 9 14 9 30 0 27 -3 30 -30 30 -16 0 -30 -4 -30 -9z"/>
<path d="M2570 2900 c0 -16 4 -30 9 -30 4 0 6 12 3 26 -4 25 -3 26 22 22 14
-3 26 -1 26 3 0 5 -13 9 -30 9 -27 0 -30 -3 -30 -30z"/>
<path d="M2711 2898 c2 -31 2 -31 6 -5 3 19 10 27 24 27 22 0 39 -32 20 -38
-17 -6 28 -36 54 -37 14 0 20 -6 19 -22 0 -13 3 -23 8 -23 4 0 8 14 8 30 0 28
-3 30 -35 30 -33 0 -35 2 -35 35 0 33 -2 35 -35 35 -33 0 -35 -2 -34 -32z"/>
<path d="M860 2890 c-47 -10 -102 -26 -124 -35 -23 -10 -49 -14 -67 -10 -31 7
-69 -1 -69 -15 0 -5 12 -23 26 -40 20 -23 34 -30 54 -28 20 2 39 -8 69 -35 29
-26 50 -37 66 -35 13 1 32 -5 42 -14 11 -10 35 -20 54 -23 l34 -5 -41 19 c-23
11 -45 24 -48 30 -4 6 -16 11 -26 11 -10 0 -23 6 -27 13 -4 7 -25 23 -46 36
-21 13 -36 25 -34 27 5 5 71 -17 77 -26 3 -4 29 -19 58 -33 l52 -25 0 26 c0
21 -2 24 -10 12 -6 -10 -10 -11 -10 -2 0 6 -9 12 -19 12 -10 0 -22 7 -25 16
-4 9 -9 14 -13 11 -3 -4 -18 2 -33 13 -15 11 -30 17 -34 13 -3 -3 -6 4 -6 16
0 12 4 20 9 16 5 -3 17 2 26 11 15 16 18 15 46 -5 16 -12 29 -17 29 -12 0 5
-4 13 -10 16 -16 10 -12 25 8 25 9 0 30 -7 46 -15 25 -14 27 -14 16 0 -8 9 -8
15 -2 15 6 0 19 -11 30 -24 13 -17 23 -22 33 -15 12 8 6 13 -12 11 -3 -1 -11
10 -17 24 -11 23 -10 24 16 18 51 -12 97 -51 134 -113 20 -34 39 -58 42 -52 4
5 2 12 -4 16 -6 4 -8 11 -5 16 4 5 2 9 -3 9 -6 0 -15 14 -21 30 -5 17 -7 30
-3 30 13 0 89 -74 102 -100 8 -15 15 -20 18 -12 5 17 22 5 22 -17 0 -10 7 -24
15 -31 13 -11 15 -10 10 6 -3 10 2 4 11 -15 8 -19 18 -56 21 -83 5 -44 11 -52
48 -78 22 -15 48 -36 56 -46 13 -16 12 -17 -6 -10 -18 6 -17 5 3 -17 13 -13
25 -42 29 -63 3 -21 11 -48 17 -59 6 -11 13 -72 16 -135 4 -104 7 -116 26
-124 19 -9 43 -60 47 -101 2 -16 -3 -19 -23 -16 l-25 3 25 -20 c29 -23 51 -13
43 20 -5 18 -4 19 15 9 11 -6 34 -11 51 -11 l29 0 -30 -30 c-33 -33 -62 -42
-33 -10 24 27 2 26 -35 -2 -17 -12 -30 -31 -30 -42 1 -20 2 -20 21 3 l20 24
19 -21 c19 -21 18 -52 -2 -52 -6 0 -16 -8 -23 -17 -11 -14 -17 -15 -38 -6 -42
19 -122 -10 -87 -32 12 -7 13 -25 2 -25 -5 0 -16 6 -26 13 -23 17 -12 67 15
67 11 0 19 7 19 18 0 14 2 15 10 2 6 -10 10 -11 10 -2 0 6 7 12 15 12 8 0 15
7 15 15 0 8 0 18 1 22 1 14 -19 14 -24 1 -2 -7 -3 -3 -1 8 2 13 -2 24 -11 27
-9 4 -12 1 -9 -7 8 -20 -23 -27 -41 -10 -19 19 -19 25 0 18 8 -4 15 -1 15 5 0
11 -40 31 -61 31 -5 0 -2 -11 7 -25 9 -14 12 -25 7 -25 -12 0 -43 33 -43 46 0
5 -9 20 -20 34 -17 21 -21 23 -29 10 -9 -12 -11 -12 -17 3 -3 9 -12 17 -20 17
-8 0 -14 5 -14 10 0 6 -16 10 -36 10 -19 0 -33 4 -30 9 3 5 -10 26 -30 47 -64
70 -58 80 9 17 61 -59 98 -76 112 -54 3 6 -1 13 -9 18 -8 4 -23 29 -34 54 -19
43 -22 45 -54 41 -28 -3 -46 4 -100 42 -36 25 -72 44 -79 41 -17 -6 -42 13
-58 43 -10 18 -20 22 -64 22 -77 0 -123 -10 -146 -31 -11 -11 -26 -19 -34 -19
-31 0 -65 -27 -95 -76 -38 -62 -39 -68 -9 -58 65 20 68 23 56 45 -6 13 -7 24
-2 28 5 3 12 14 16 24 4 10 11 15 17 12 5 -3 10 -1 10 4 0 6 7 11 15 11 8 0
23 4 33 9 50 26 71 33 79 28 6 -4 26 -2 46 4 24 6 43 7 55 0 16 -9 16 -10 -1
-17 -10 -3 -31 -4 -47 0 -23 4 -30 2 -30 -10 0 -12 -7 -15 -25 -12 -21 5 -23
3 -14 -14 6 -11 17 -17 25 -14 13 5 51 -10 64 -25 9 -10 75 -6 82 5 4 6 -1 19
-10 30 -13 14 -13 17 -2 11 8 -5 23 -19 33 -32 25 -31 41 -29 21 3 l-17 26 39
-27 c21 -15 38 -31 36 -36 -1 -5 3 -9 10 -9 9 0 9 -3 1 -11 -8 -8 -17 -8 -33
1 -19 10 -27 9 -52 -10 -28 -21 -30 -21 -49 -4 -16 14 -21 15 -35 3 -15 -12
-14 -15 5 -30 16 -13 29 -15 58 -9 25 6 42 5 52 -3 10 -8 8 -3 -3 16 -23 34
-12 35 19 1 18 -19 25 -22 25 -12 0 26 28 29 45 5 21 -31 19 -40 -10 -33 -20
5 -23 3 -18 -11 6 -16 4 -16 -17 2 -13 11 -20 14 -16 8 5 -9 -2 -13 -23 -13
-17 0 -31 4 -31 9 0 5 -11 11 -25 13 -30 6 -31 -1 -7 -28 16 -17 31 -19 108
-18 56 1 80 -1 64 -6 l-25 -8 25 -1 c14 -1 43 -10 64 -20 21 -11 44 -17 52
-14 8 3 14 1 14 -4 0 -5 14 -30 30 -55 31 -46 68 -68 116 -68 l23 0 -24 -26
c-17 -18 -25 -39 -25 -61 l0 -35 -29 24 c-17 13 -30 29 -30 36 -1 14 -17 16
-26 2 -3 -5 -14 -10 -24 -10 -48 0 -226 -93 -286 -149 -38 -35 -76 -45 -101
-26 -24 18 -40 19 -25 2 6 -8 8 -17 5 -20 -3 -3 9 -10 27 -15 26 -7 38 -6 52
6 14 13 24 13 54 4 49 -15 96 9 87 45 -5 18 -1 25 21 33 20 8 26 16 22 29 -4
15 4 22 37 34 22 8 57 21 77 30 36 16 37 16 83 -14 26 -16 53 -26 59 -23 7 4
9 4 5 -1 -4 -4 8 -23 27 -42 38 -37 78 -43 94 -15 6 9 11 11 11 5 0 -16 44
-17 70 -3 11 6 26 23 34 38 14 26 15 26 16 5 0 -18 6 -23 28 -23 33 0 43 7 36
25 -3 7 -14 11 -25 8 -10 -3 -19 0 -19 6 0 6 -7 11 -16 11 -18 0 -44 -23 -44
-39 0 -6 -6 -11 -12 -11 -7 0 -24 -3 -38 -6 -24 -6 -24 -6 -5 9 19 16 19 16
-5 10 -14 -3 -31 -10 -37 -16 -21 -16 -43 0 -43 32 0 25 4 29 33 34 17 2 33 1
35 -4 2 -5 11 -5 20 0 9 5 22 9 27 9 6 -1 15 9 21 21 18 35 22 35 33 0 9 -33
9 -33 10 -6 1 15 -6 39 -15 53 -20 29 -19 31 24 37 19 3 37 9 40 13 4 4 -1 4
-10 1 -44 -16 -25 46 24 78 17 11 38 33 47 50 23 43 69 77 55 41 -4 -11 3 -13
31 -11 29 3 35 0 31 -11 -13 -34 81 2 114 44 11 14 23 22 26 19 9 -9 -27 -64
-50 -76 -26 -13 -102 -17 -136 -6 -37 12 -12 -10 27 -23 23 -8 33 -7 36 1 3
11 11 8 57 -18 29 -17 95 -20 85 -5 -3 6 -18 10 -33 10 -15 0 -34 5 -42 10
-13 8 -13 10 2 10 10 0 29 17 42 37 l25 37 9 -25 c12 -30 5 -44 -14 -28 -11 9
-14 8 -14 -9 0 -14 9 -21 32 -26 38 -8 58 -23 58 -45 0 -10 8 -17 20 -17 13 0
16 4 10 10 -6 6 -10 17 -10 26 0 9 -11 27 -25 40 -14 13 -25 32 -25 42 0 31
-44 106 -69 118 -30 14 -83 4 -141 -26 l-45 -23 40 0 c22 0 61 4 86 8 25 4 54
4 64 1 18 -6 18 -7 0 -14 -21 -8 -53 -13 -149 -25 -69 -8 -69 -8 -101 25 -18
18 -35 30 -38 27 -10 -10 17 -54 30 -49 7 3 13 -1 13 -9 0 -8 -4 -15 -9 -15
-5 0 -11 -12 -14 -27 -4 -18 -20 -37 -43 -52 -39 -24 -41 -21 -19 32 5 13 3
16 -8 11 -9 -3 -13 -12 -11 -19 3 -7 -6 -21 -20 -30 -23 -15 -27 -15 -41 -2
-8 9 -15 23 -15 32 0 17 38 77 52 83 4 2 8 8 8 13 0 6 -6 7 -12 3 -9 -5 -9 -2
1 9 8 11 9 17 3 17 -15 0 -35 -38 -27 -50 4 -6 1 -9 -7 -8 -7 2 -12 -4 -10
-12 2 -8 0 -12 -3 -8 -4 4 -15 3 -25 -2 -13 -7 -22 -4 -35 10 -17 19 -17 22 0
80 16 52 24 64 63 90 25 17 51 30 57 30 6 0 12 7 12 15 0 8 -7 15 -14 15 -18
0 -90 -37 -98 -50 -14 -22 -25 -8 -25 33 0 59 22 87 68 87 51 0 95 30 121 82
23 48 26 84 11 108 -8 13 -10 13 -10 -1 0 -9 -13 -22 -29 -28 -23 -10 -28 -18
-26 -42 3 -38 15 -51 15 -16 0 14 5 29 10 32 6 4 10 -10 10 -35 0 -23 -4 -39
-9 -35 -6 3 -15 -4 -21 -15 -18 -34 -33 -24 -26 18 5 29 4 33 -4 19 -6 -9 -17
-14 -23 -11 -7 4 -9 4 -5 -1 11 -12 -18 -35 -46 -35 -14 0 -26 2 -26 4 0 3 13
32 28 65 24 51 30 58 45 49 16 -9 17 -8 5 11 -17 27 -26 26 -38 -4 -5 -14 -14
-25 -20 -25 -5 0 -10 -5 -10 -11 0 -16 -29 -41 -40 -34 -6 4 -4 17 5 36 9 16
13 29 11 29 -3 0 6 11 20 25 14 14 35 25 47 25 21 1 22 1 3 15 -11 8 -17 16
-13 16 4 1 12 3 17 4 6 1 19 3 30 4 31 2 24 21 -8 21 -36 0 -98 -43 -118 -82
-21 -40 -21 -100 -2 -130 11 -17 14 -35 9 -63 -7 -38 -8 -39 -19 -18 -7 12
-12 30 -12 40 0 10 -6 30 -14 44 -7 14 -16 37 -19 50 -4 14 -19 43 -33 65 -15
21 -35 60 -44 86 -10 25 -30 63 -45 83 -27 34 -187 165 -203 165 -4 0 -23 11
-43 24 -50 34 -109 39 -209 16z m-155 -91 c9 -9 -15 -14 -45 -9 -15 2 -30 18
-30 32 0 8 61 -11 75 -23z m228 -585 c15 -8 27 -19 27 -24 0 -6 -1 -10 -2 -10
-39 7 -103 30 -105 37 -5 15 48 13 80 -3z m141 -581 c-1 -24 -5 -27 -40 -30
-21 -1 -34 1 -28 5 6 4 13 15 17 24 3 9 16 18 29 21 13 2 23 5 23 6 1 0 0 -11
-1 -26z"/>
<path d="M91 2828 c2 -31 2 -31 6 -5 3 18 10 27 23 27 13 0 20 -9 23 -27 4
-26 4 -26 6 5 1 29 -2 32 -29 32 -27 0 -30 -3 -29 -32z"/>
<path d="M230 2830 c0 -16 4 -30 9 -30 4 0 6 11 3 25 -3 20 0 25 16 25 15 0
22 -8 25 -27 4 -26 4 -26 6 5 1 29 -2 32 -29 32 -27 0 -30 -3 -30 -30z"/>
<path d="M510 2830 c0 -16 5 -30 11 -30 6 0 8 7 5 16 -4 9 -1 23 5 30 9 11 8
14 -5 14 -11 0 -16 -9 -16 -30z"/>
<path d="M1249 2853 c29 -4 32 -7 28 -29 -2 -13 0 -24 4 -24 5 0 9 14 9 30 0
28 -2 30 -37 28 l-38 -1 34 -4z"/>
<path d="M1364 2851 c3 -4 18 -6 32 -3 25 4 26 3 22 -22 -3 -14 -1 -26 3 -26
5 0 9 14 9 30 0 28 -3 30 -36 30 -19 0 -33 -4 -30 -9z"/>
<path d="M1510 2843 c0 -15 2 -15 9 -4 13 21 39 6 44 -26 3 -23 4 -22 6 10 1
35 -1 37 -29 37 -22 0 -30 -5 -30 -17z"/>
<path d="M1651 2828 c2 -31 2 -31 6 -5 6 41 40 37 46 -5 4 -32 4 -32 5 5 2 35
0 37 -28 37 -27 0 -30 -3 -29 -32z"/>
<path d="M1790 2830 c0 -16 4 -30 9 -30 4 0 6 12 3 26 -4 25 -3 26 22 22 14
-3 26 -1 26 3 0 5 -13 9 -30 9 -27 0 -30 -3 -30 -30z"/>
<path d="M2227 2841 c3 -13 -2 -20 -19 -24 -21 -6 -24 -11 -20 -37 3 -19 0
-30 -7 -30 -7 0 -9 -5 -6 -10 9 -14 25 -2 25 19 0 36 70 80 99 62 12 -8 12
-12 2 -25 -13 -15 -7 -36 10 -36 5 0 9 7 9 16 0 13 8 15 35 12 19 -2 35 -3 35
-2 0 1 -29 18 -65 38 -74 41 -106 46 -98 17z"/>
<path d="M2501 2828 c2 -32 2 -32 6 -4 4 24 8 27 29 23 13 -2 24 0 24 4 0 5
-13 9 -30 9 -27 0 -30 -3 -29 -32z"/>
<path d="M2641 2828 c2 -31 2 -31 6 -5 3 21 10 27 30 27 22 0 25 -4 21 -25 -3
-14 -1 -25 3 -25 5 0 9 14 9 30 0 28 -3 30 -35 30 -33 0 -35 -2 -34 -32z"/>
<path d="M2134 2836 c-35 -15 -42 -29 -53 -98 -7 -43 -6 -48 10 -48 11 0 19 7
19 15 0 21 17 19 30 -5 10 -19 40 -28 40 -12 0 26 -51 58 -83 53 -11 -2 2 39
22 66 9 12 24 23 33 23 9 0 20 5 23 10 8 13 -3 12 -41 -4z"/>
<path d="M801 2830 c-12 -7 -12 -10 0 -22 18 -17 49 -22 49 -8 0 6 -5 8 -10 5
-6 -3 -14 3 -18 14 -5 14 -11 18 -21 11z"/>
<path d="M1955 2810 c-10 -11 -26 -20 -35 -20 -9 0 -25 -9 -35 -20 -10 -11
-15 -20 -11 -20 3 0 0 -10 -8 -22 -20 -30 -34 -168 -16 -151 7 6 14 35 16 64
5 66 31 120 65 136 29 14 67 53 52 53 -5 0 -18 -9 -28 -20z"/>
<path d="M1990 2784 c-11 -26 -20 -65 -20 -88 0 -38 2 -41 30 -43 36 -3 39 4
6 17 -22 8 -24 13 -19 47 8 52 30 92 56 103 21 8 21 9 -5 9 -23 1 -30 -6 -48
-45z"/>
<path d="M160 2755 c0 -19 4 -35 8 -35 5 0 7 13 4 29 -3 22 0 30 15 34 15 4
14 5 -4 6 -20 1 -23 -4 -23 -34z"/>
<path d="M490 2775 c7 -8 10 -24 7 -35 -3 -11 -1 -20 3 -20 5 0 10 -15 12 -32
3 -29 7 -33 36 -36 31 -3 32 -2 32 32 0 34 -2 36 -35 36 -33 0 -35 2 -35 35 0
26 -4 35 -16 35 -13 0 -14 -3 -4 -15z m80 -90 c0 -26 -14 -31 -39 -16 -19 12
-6 41 19 41 15 0 20 -7 20 -25z"/>
<path d="M1441 2773 c0 -11 3 -13 6 -5 2 6 13 12 24 12 22 0 28 -45 7 -53 -8
-3 -6 -6 5 -6 13 -1 17 7 17 34 0 32 -2 35 -30 35 -22 0 -30 -5 -29 -17z"/>
<path d="M1580 2755 c0 -19 4 -35 8 -35 5 0 7 14 4 30 -4 25 -1 30 16 30 16 0
22 -8 25 -32 4 -32 4 -32 5 5 2 35 0 37 -28 37 -28 0 -30 -3 -30 -35z"/>
<path d="M2710 2755 c0 -33 -2 -35 -35 -35 -19 0 -35 -4 -35 -8 0 -4 12 -8 27
-7 18 0 29 -6 31 -18 5 -25 -28 -34 -44 -12 -13 18 -14 18 -14 -3 0 -18 6 -22
34 -22 32 0 35 -3 38 -32 3 -29 7 -33 36 -36 31 -3 32 -2 32 32 0 19 5 37 10
39 6 3 5 4 -2 3 -7 -1 -16 -17 -20 -34 -5 -18 -15 -32 -24 -32 -20 0 -30 30
-13 40 11 7 10 10 -4 16 -11 4 -17 17 -17 40 0 19 3 34 8 34 4 0 7 16 7 35 0
19 -3 35 -7 35 -5 0 -8 -16 -8 -35z"/>
<path d="M2753 2779 c13 -8 17 -18 13 -34 -5 -18 -1 -25 15 -30 11 -4 23 -4
26 -1 4 3 -1 6 -10 6 -13 0 -17 9 -17 35 0 30 -3 35 -22 35 -21 -1 -22 -1 -5
-11z"/>
<path d="M920 2746 c0 -26 25 -58 56 -71 50 -21 55 -19 48 13 -10 39 -27 65
-19 27 6 -28 5 -29 -12 -14 -25 21 -73 51 -73 45z"/>
<path d="M2282 2734 c-7 -8 -17 -12 -23 -9 -5 4 -9 -3 -9 -15 0 -12 -4 -19 -9
-15 -5 3 -12 1 -16 -5 -4 -6 -11 -8 -16 -5 -5 4 -9 2 -9 -4 0 -5 8 -11 18 -14
9 -2 -10 -7 -43 -11 -103 -14 -318 -83 -288 -93 6 -2 32 3 58 11 25 9 56 16
69 16 13 0 43 9 67 20 24 11 58 20 75 20 17 0 49 7 70 16 24 10 51 14 74 10
25 -4 43 -1 61 12 39 27 120 51 177 52 28 0 52 4 52 8 0 17 -105 10 -148 -10
-23 -11 -49 -18 -56 -15 -8 3 -22 -1 -33 -8 -22 -18 -55 -19 -71 -3 -9 9 -7
17 10 35 12 13 17 23 12 23 -5 -1 -15 -7 -22 -16z"/>
<path d="M1795 2709 c-16 -10 -27 -19 -23 -19 3 0 0 -21 -8 -47 -16 -52 -19
-118 -5 -93 5 8 12 38 16 67 5 40 14 60 38 83 35 34 27 38 -18 9z"/>
<path d="M90 2685 c0 -32 2 -35 30 -35 28 0 30 3 30 35 0 32 -2 35 -30 35 -28
0 -30 -3 -30 -35z m48 -3 c3 -17 -2 -22 -17 -22 -16 0 -21 6 -21 26 0 33 33
30 38 -4z"/>
<path d="M230 2685 c0 -32 2 -35 30 -35 22 0 30 5 30 18 0 14 -2 14 -9 3 -12
-19 -41 -6 -41 18 0 14 8 21 28 24 25 4 25 4 -5 6 -31 1 -33 -1 -33 -34z"/>
<path d="M370 2685 c0 -33 2 -35 35 -35 19 0 35 4 35 9 0 6 -12 9 -27 8 -24
-2 -28 2 -28 26 1 15 -3 27 -7 27 -4 0 -8 -16 -8 -35z"/>
<path d="M1410 2705 c7 -8 10 -24 7 -35 -3 -11 -1 -20 4 -20 5 0 9 16 9 35 0
26 -4 35 -16 35 -13 0 -14 -3 -4 -15z"/>
<path d="M1510 2703 c0 -15 2 -15 9 -4 11 17 41 7 41 -14 0 -21 -30 -31 -41
-14 -7 11 -9 10 -9 -4 0 -13 7 -17 30 -15 27 2 30 6 30 35 0 30 -3 33 -30 33
-22 0 -30 -5 -30 -17z"/>
<path d="M2825 2712 c15 -11 17 -32 4 -48 -9 -11 -8 -14 5 -14 12 0 16 9 16
35 0 27 -4 35 -17 35 -10 0 -14 -4 -8 -8z"/>
<path d="M1040 2682 c0 -11 8 -28 17 -38 20 -19 83 -48 90 -40 3 3 1 22 -5 43
-5 21 -10 30 -11 21 -1 -25 -25 -22 -60 8 -29 24 -31 25 -31 6z"/>
<path d="M1718 2663 c-7 -16 -20 -38 -30 -49 -18 -20 -18 -22 -2 -28 9 -4 18
-5 19 -4 5 6 45 97 45 102 0 17 -22 2 -32 -21z"/>
<path d="M978 2641 c27 -29 102 -67 102 -52 0 4 -18 16 -40 26 -22 10 -37 21
-35 25 4 6 -36 30 -50 30 -2 0 8 -13 23 -29z"/>
<path d="M160 2615 c0 -32 2 -35 30 -35 17 0 30 4 30 8 0 5 -10 8 -22 8 -16
-1 -24 5 -26 21 -3 17 3 22 25 26 27 4 27 4 -4 6 -31 1 -33 -1 -33 -34z"/>
<path d="M450 2641 c0 -4 11 -6 25 -3 20 3 25 0 25 -15 0 -10 -5 -24 -12 -31
-9 -9 -8 -12 5 -12 13 0 17 9 17 35 0 32 -2 35 -30 35 -16 0 -30 -4 -30 -9z"/>
<path d="M590 2641 c0 -5 9 -7 20 -4 24 6 37 -21 20 -42 -10 -12 -9 -15 4 -15
12 0 16 9 16 35 0 32 -2 35 -30 35 -16 0 -30 -4 -30 -9z"/>
<path d="M1167 2642 c-3 -4 -3 -19 0 -33 5 -27 46 -55 64 -44 13 9 11 17 -11
45 -17 21 -19 22 -14 5 3 -12 -1 -9 -11 8 -17 29 -21 32 -28 19z"/>
<path d="M2430 2615 c0 -32 2 -35 30 -35 17 0 30 4 30 9 0 4 -11 6 -25 3 -22
-4 -25 -1 -25 23 0 24 3 27 25 23 14 -3 25 -1 25 3 0 5 -13 9 -30 9 -28 0 -30
-3 -30 -35z"/>
<path d="M2570 2614 c0 -34 1 -35 32 -32 17 2 33 10 35 18 4 12 3 12 -5 2 -14
-21 -47 -10 -50 17 -3 21 0 23 22 19 14 -3 26 -1 26 3 0 5 -13 9 -30 9 -28 0
-30 -3 -30 -36z"/>
<path d="M2861 2633 c0 -11 3 -13 6 -5 2 6 13 12 23 12 14 0 20 -9 23 -32 4
-32 4 -32 5 5 2 35 0 37 -28 37 -22 0 -30 -5 -29 -17z"/>
<path d="M1250 2591 c0 -30 6 -44 22 -55 12 -8 26 -13 31 -9 5 3 4 9 -3 13 -7
4 -10 15 -7 25 4 9 3 14 -2 11 -5 -3 -14 8 -20 24 -14 41 -21 38 -21 -9z"/>
<path d="M1617 2573 c-3 -5 -4 -19 -3 -32 1 -19 7 -25 27 -25 16 -1 25 4 26
14 1 10 -6 16 -17 16 -22 -1 -28 17 -8 22 9 2 8 0 -2 -8 -12 -9 -11 -10 7 -5
15 4 25 0 32 -12 10 -17 10 -17 11 -1 0 27 -61 52 -73 31z"/>
<path d="M2269 2573 c-1 -5 0 -19 1 -32 2 -20 -2 -23 -24 -19 -14 3 -26 1 -26
-3 0 -5 14 -9 30 -9 28 0 30 3 30 35 0 30 -8 50 -11 28z"/>
<path d="M2502 2548 c-2 -36 0 -38 28 -38 17 0 30 4 30 9 0 4 -11 6 -24 4 -22
-4 -25 -1 -29 28 l-4 34 -1 -37z"/>
<path d="M2699 2573 c-1 -5 0 -19 1 -32 2 -21 -2 -23 -29 -19 -17 2 -31 1 -31
-4 0 -4 16 -8 35 -8 33 0 35 2 35 35 0 30 -8 50 -11 28z"/>
<path d="M90 2540 c0 -27 3 -30 30 -30 22 0 30 5 29 18 0 10 -3 12 -6 5 -2 -7
-14 -13 -25 -13 -16 0 -19 5 -16 25 3 14 1 25 -3 25 -5 0 -9 -13 -9 -30z"/>
<path d="M230 2540 c0 -27 3 -30 30 -30 17 0 30 4 30 8 0 5 -10 8 -22 8 -18
-1 -23 4 -22 22 0 12 -3 22 -8 22 -4 0 -8 -13 -8 -30z"/>
<path d="M370 2540 c0 -28 3 -30 35 -30 19 0 35 4 35 8 0 4 -12 8 -27 7 -23 0
-28 4 -27 23 0 12 -3 22 -8 22 -4 0 -8 -13 -8 -30z"/>
<path d="M510 2540 c0 -16 5 -30 11 -30 6 0 8 9 4 20 -8 25 19 38 40 20 12
-10 15 -9 15 4 0 12 -9 16 -35 16 -32 0 -35 -2 -35 -30z"/>
<path d="M707 2546 c4 -21 1 -25 -23 -29 -28 -4 -28 -4 4 -6 29 -1 32 2 32 29
0 17 -4 30 -9 30 -4 0 -6 -11 -4 -24z"/>
<path d="M940 2540 c0 -27 3 -30 30 -30 22 0 30 5 29 18 0 10 -3 12 -6 5 -2
-7 -13 -13 -24 -13 -22 0 -27 35 -6 43 7 3 5 6 -5 6 -13 1 -18 -7 -18 -29z"/>
<path d="M1090 2565 c0 -7 42 -23 78 -30 15 -3 5 3 -23 15 -56 22 -55 22 -55
15z"/>
<path d="M1217 2508 c15 -15 40 -24 78 -28 30 -3 55 -5 55 -3 0 1 -14 10 -31
19 -20 10 -28 11 -24 3 11 -17 -43 -3 -62 16 -8 8 -20 15 -26 15 -6 0 -2 -10
10 -22z"/>
<path d="M160 2470 c0 -27 3 -30 30 -30 17 0 30 4 30 9 0 4 -12 6 -26 3 -25
-4 -26 -3 -22 22 3 14 1 26 -3 26 -5 0 -9 -13 -9 -30z"/>
<path d="M300 2470 c0 -27 3 -30 33 -29 31 2 31 2 3 6 -24 4 -27 8 -23 29 2
13 0 24 -4 24 -5 0 -9 -13 -9 -30z"/>
<path d="M498 2474 c5 -25 3 -26 -27 -22 -17 2 -31 1 -31 -4 0 -4 16 -8 35 -8
32 0 35 2 35 30 0 17 -4 30 -9 30 -4 0 -6 -12 -3 -26z"/>
<path d="M628 2493 c6 -2 12 -13 12 -23 0 -14 -9 -20 -32 -23 -32 -4 -32 -4 5
-5 35 -2 37 0 37 28 0 22 -5 30 -17 29 -11 0 -13 -3 -5 -6z"/>
<path d="M1010 2470 c0 -28 3 -30 36 -30 19 0 33 4 30 9 -3 4 -18 6 -32 3 -25
-4 -26 -3 -22 22 3 14 1 26 -3 26 -5 0 -9 -13 -9 -30z"/>
<path d="M2570 2470 c0 -27 3 -30 33 -29 30 1 30 2 7 8 -17 5 -25 14 -24 29 0
12 -3 22 -8 22 -4 0 -8 -13 -8 -30z"/>
<path d="M2710 2470 c0 -28 3 -30 35 -30 32 0 35 2 35 30 0 17 -4 30 -8 30 -5
0 -8 -10 -8 -22 1 -17 -5 -23 -19 -23 -14 0 -20 6 -19 23 0 12 -3 22 -8 22 -4
0 -8 -13 -8 -30z"/>
<path d="M2907 2476 c4 -21 1 -25 -23 -29 -28 -4 -28 -4 4 -6 29 -1 32 2 32
29 0 17 -4 30 -9 30 -4 0 -6 -11 -4 -24z"/>
<path d="M1986 2483 c-19 -5 -65 -51 -66 -67 0 -4 11 -1 25 8 14 9 25 12 25 6
0 -20 20 -9 26 14 4 17 15 26 36 30 44 9 48 -2 10 -32 -46 -38 -40 -45 16 -18
26 13 55 27 65 30 24 8 21 23 -5 30 -26 7 -104 6 -132 -1z"/>
<path d="M1870 2451 c-8 -6 -18 -7 -22 -5 -4 3 -16 0 -25 -5 -17 -10 -17 -10
0 -11 16 0 16 -2 1 -25 -16 -24 -15 -25 4 -25 12 0 28 10 36 22 15 21 16 21
16 3 0 -18 1 -18 16 3 9 13 13 29 10 37 -6 17 -15 18 -36 6z"/>
<path d="M2135 2441 c-3 -5 0 -13 6 -16 7 -5 1 -18 -18 -38 l-28 -31 27 17
c39 24 74 22 81 -5 7 -24 1 -38 -14 -38 -6 0 -8 4 -5 9 3 5 -3 11 -14 14 -11
3 -22 2 -25 -3 -3 -4 5 -10 17 -13 18 -5 19 -8 8 -21 -7 -9 -9 -16 -5 -16 5 0
0 -9 -10 -20 -10 -11 -14 -20 -8 -20 13 0 43 33 43 47 0 6 9 13 20 16 11 3 18
1 14 -4 -3 -5 0 -9 5 -9 6 0 11 5 11 10 0 6 7 10 15 10 22 0 18 -19 -7 -40
-78 -65 -98 -83 -95 -86 2 -3 34 11 70 29 37 19 64 37 60 40 -3 4 -1 7 5 7 6
0 15 -7 20 -16 12 -22 26 -1 18 29 -11 45 -175 172 -191 148z"/>
<path d="M90 2400 c0 -27 3 -30 30 -30 27 0 30 3 30 30 0 17 -4 30 -9 30 -4 0
-6 -11 -3 -25 3 -21 0 -25 -18 -25 -18 0 -21 4 -18 25 3 14 1 25 -3 25 -5 0
-9 -13 -9 -30z"/>
<path d="M230 2400 c0 -16 4 -30 9 -30 4 0 6 11 3 25 -3 21 0 25 18 25 18 0
21 -4 18 -25 -3 -14 -1 -25 3 -25 5 0 9 14 9 30 0 27 -3 30 -30 30 -27 0 -30
-3 -30 -30z"/>
<path d="M370 2400 c0 -28 2 -30 38 -28 l37 1 -34 4 c-29 4 -32 7 -28 29 2 13
0 24 -4 24 -5 0 -9 -13 -9 -30z"/>
<path d="M538 2423 c23 -3 32 -9 32 -23 0 -10 -6 -21 -12 -23 -8 -3 -6 -6 5
-6 12 -1 17 7 17 29 0 28 -2 30 -37 28 -37 -1 -37 -1 -5 -5z"/>
<path d="M707 2406 c4 -21 1 -25 -23 -29 -28 -4 -28 -4 4 -6 29 -1 32 2 32 29
0 17 -4 30 -9 30 -4 0 -6 -11 -4 -24z"/>
<path d="M940 2400 c0 -27 3 -30 30 -30 17 0 30 4 30 9 0 4 -11 6 -25 3 -20
-3 -25 0 -25 16 0 11 6 23 13 25 7 3 5 6 -5 6 -13 1 -18 -7 -18 -29z"/>
<path d="M1714 2389 c-15 -22 -39 -49 -53 -60 -15 -12 -21 -23 -15 -29 13 -12
65 -24 63 -14 -1 5 5 25 14 44 9 19 16 32 17 28 0 -5 8 0 19 11 10 10 24 20
32 23 21 7 2 38 -24 38 -17 0 -33 -12 -53 -41z"/>
<path d="M2500 2400 c0 -27 3 -30 30 -30 17 0 30 4 30 9 0 4 -11 6 -25 3 -20
-3 -25 0 -25 17 0 23 35 30 43 9 3 -8 6 -6 6 5 1 12 -7 17 -29 17 -27 0 -30
-3 -30 -30z"/>
<path d="M2780 2400 c0 -28 3 -30 36 -30 19 0 33 4 30 9 -3 4 -18 6 -32 3 -25
-4 -26 -3 -22 22 3 14 1 26 -3 26 -5 0 -9 -13 -9 -30z"/>
<path d="M1930 2385 c-6 -8 -9 -19 -5 -25 4 -7 -9 -26 -30 -46 -30 -27 -41
-32 -55 -24 -13 7 -21 7 -25 0 -3 -5 -11 -10 -16 -10 -6 0 -8 4 -4 9 8 13 -32
24 -62 16 -20 -5 -23 -8 -13 -20 7 -8 25 -15 41 -15 16 0 29 -5 29 -11 0 -5 5
-7 11 -4 5 4 42 -1 80 -10 38 -10 72 -16 74 -13 2 2 -7 17 -20 32 -14 16 -25
24 -25 19 0 -11 -30 -27 -37 -19 -2 2 14 23 36 47 22 24 36 45 31 47 -6 2 -6
11 0 23 13 23 7 25 -10 4z"/>
<path d="M160 2330 c0 -16 4 -30 9 -30 4 0 6 12 3 26 -4 25 -3 26 22 22 14 -3
26 -1 26 3 0 5 -13 9 -30 9 -27 0 -30 -3 -30 -30z"/>
<path d="M300 2330 c0 -27 3 -30 33 -29 31 2 31 2 3 6 -24 4 -27 8 -23 29 2
13 0 24 -4 24 -5 0 -9 -13 -9 -30z"/>
<path d="M2040 2344 c0 -6 -12 -23 -27 -38 -14 -14 -24 -28 -21 -31 2 -2 23
15 46 38 35 35 39 43 22 43 -11 0 -20 -5 -20 -12z"/>
<path d="M1592 2317 c-7 -8 -10 -22 -6 -31 7 -17 10 -18 36 -8 16 7 16 9 -1
30 -15 20 -19 21 -29 9z"/>
<path d="M1247 2299 c-9 -5 -21 -8 -25 -5 -5 3 -28 -2 -51 -10 -35 -12 -49
-12 -76 -2 -26 9 -40 9 -60 0 -38 -17 -21 -33 26 -26 28 5 44 2 57 -9 18 -16
89 -57 99 -57 3 0 3 19 -1 42 -6 35 -5 39 8 29 8 -7 18 -26 21 -42 10 -45 25
-34 25 18 0 38 3 45 13 35 6 -7 12 -37 12 -66 0 -45 3 -52 17 -48 10 2 17 12
16 21 -4 48 3 92 13 85 7 -4 9 -25 5 -58 -7 -49 -6 -53 19 -64 33 -15 33 -15
38 6 3 11 5 9 6 -8 1 -29 41 -62 41 -34 0 28 -63 142 -84 153 -12 6 -34 20
-51 30 -35 23 -44 24 -68 10z m141 -120 c2 -32 0 -41 -8 -33 -17 17 -24 87 -8
82 7 -3 14 -24 16 -49z"/>
<path d="M230 2260 c0 -27 3 -30 30 -30 27 0 30 3 30 30 0 27 -3 30 -30 30
-27 0 -30 -3 -30 -30z m50 0 c0 -13 -7 -20 -20 -20 -13 0 -20 7 -20 20 0 13 7
20 20 20 13 0 20 -7 20 -20z"/>
<path d="M370 2260 c0 -16 4 -30 9 -30 4 0 6 12 3 26 -4 25 -3 26 22 22 14 -3
29 -1 32 3 3 5 -11 9 -30 9 -33 0 -36 -2 -36 -30z"/>
<path d="M510 2260 c0 -25 4 -30 23 -29 16 1 18 2 5 6 -10 2 -18 13 -18 23 0
14 9 20 33 23 31 4 31 4 -5 5 -36 2 -38 0 -38 -28z"/>
<path d="M2640 2260 c0 -22 5 -30 18 -29 10 0 12 3 5 6 -7 2 -13 13 -13 24 0
13 7 19 24 19 24 0 28 -13 13 -37 -5 -8 -3 -13 7 -13 11 0 16 9 16 30 0 28 -3
30 -35 30 -32 0 -35 -2 -35 -30z"/>
<path d="M2808 2283 c30 -4 33 -7 28 -29 -4 -14 -2 -24 4 -24 5 0 10 14 10 30
0 28 -2 30 -37 28 l-38 -1 33 -4z"/>
<path d="M1670 2262 c0 -16 37 -24 57 -13 16 9 16 10 -4 11 -12 0 -28 3 -37 6
-9 3 -16 1 -16 -4z"/>
<path d="M1980 2235 c-8 -9 -6 -14 6 -19 29 -11 52 -6 57 13 4 16 0 19 -24 19
-16 -1 -34 -7 -39 -13z"/>
<path d="M2146 2243 c-4 -5 -13 -8 -19 -8 -7 -1 -10 -7 -8 -15 2 -8 5 -24 6
-35 1 -11 9 -21 18 -23 20 -4 21 2 7 29 -8 13 -7 25 0 39 11 20 9 26 -4 13z"/>
<path d="M1795 2230 c-4 -6 -15 -8 -26 -5 -13 4 -27 -2 -43 -20 l-25 -27 28
-24 c36 -30 43 -30 39 -1 -2 17 5 26 30 39 45 22 47 25 23 37 -14 8 -22 8 -26
1z"/>
<path d="M2073 2223 c-25 -17 -31 -38 -9 -30 7 3 18 1 24 -5 15 -15 27 15 15
35 -7 13 -11 13 -30 0z"/>
<path d="M2308 2212 c-23 -14 -58 -60 -58 -76 0 -16 39 -3 58 19 29 33 46 33
38 -1 -5 -19 -2 -30 11 -40 16 -12 12 -13 -32 -8 -27 4 -70 11 -95 16 -99 21
-103 21 -96 9 4 -6 2 -11 -3 -11 -6 0 -11 5 -11 10 0 6 -10 10 -22 10 -24 1
-61 23 -52 32 5 5 -50 28 -66 28 -5 0 -10 -6 -13 -13 -3 -8 1 -14 9 -14 7 0
11 4 8 9 -3 4 -2 8 3 8 4 0 31 -25 59 -55 44 -48 56 -55 88 -55 20 0 35 4 32
9 -3 4 6 6 19 3 27 -5 33 -17 13 -26 -7 -3 7 -3 32 1 25 3 78 7 118 7 39 1 72
3 72 6 0 3 -14 22 -31 43 -17 20 -27 42 -23 48 6 11 -14 60 -25 58 -3 0 -18
-8 -33 -17z"/>
<path d="M161 2188 c2 -30 2 -30 6 -6 3 20 11 28 31 31 24 4 24 4 -5 6 -31 1
-33 -1 -32 -31z"/>
<path d="M300 2190 c0 -16 4 -30 9 -30 4 0 6 11 4 24 -4 21 -1 25 23 29 28 4
28 4 -3 6 -30 1 -33 -2 -33 -29z"/>
<path d="M441 2193 c2 -24 2 -25 6 -5 7 34 50 30 56 -5 4 -26 4 -26 6 5 1 30
-1 32 -34 32 -32 0 -35 -2 -34 -27z"/>
<path d="M2576 2204 c-9 -24 -7 -44 4 -44 5 0 9 10 7 23 -1 17 3 22 21 21 12
0 22 3 22 8 0 15 -48 8 -54 -8z"/>
<path d="M2711 2188 c2 -31 2 -31 6 -5 5 29 29 37 51 15 9 -9 12 -8 12 5 0 13
-9 17 -35 17 -33 0 -35 -2 -34 -32z"/>
<path d="M2860 2211 c0 -4 12 -6 26 -3 25 4 26 3 22 -22 -3 -14 -1 -26 3 -26
5 0 9 14 9 30 0 27 -3 30 -30 30 -16 0 -30 -4 -30 -9z"/>
<path d="M1603 2180 c-33 -20 -74 -86 -72 -117 0 -12 2 -13 6 -5 10 25 55 67
69 64 21 -4 17 16 -3 21 -14 3 -11 7 12 16 21 9 36 9 52 2 27 -12 30 -31 6
-31 -15 0 -16 2 -3 10 13 8 12 10 -2 10 -20 0 -24 -26 -5 -32 38 -15 49 25 17
60 -25 27 -36 27 -77 2z"/>
<path d="M1845 2180 c-16 -11 -25 -20 -19 -20 5 0 19 6 29 14 10 7 27 11 37 8
10 -2 18 1 18 7 0 17 -32 13 -65 -9z"/>
<path d="M2227 2183 c-5 -4 -16 -8 -24 -8 -9 0 -18 -5 -20 -11 -2 -7 7 -10 22
-8 31 3 39 8 33 24 -2 6 -7 8 -11 3z"/>
<path d="M91 2118 c2 -31 2 -31 6 -5 5 28 37 39 46 15 3 -8 6 -6 6 5 1 12 -7
17 -29 17 -27 0 -30 -3 -29 -32z"/>
<path d="M230 2113 c0 -20 3 -33 7 -29 4 4 8 17 8 29 0 17 5 21 23 20 12 -2
22 2 22 7 0 6 -13 10 -30 10 -28 0 -30 -3 -30 -37z"/>
<path d="M371 2118 c2 -32 2 -32 6 -4 4 24 8 27 29 23 13 -2 27 0 30 4 3 5
-11 9 -30 9 -34 0 -36 -2 -35 -32z"/>
<path d="M1801 2129 c-37 -40 -24 -53 18 -18 17 14 21 23 14 30 -7 7 -17 4
-32 -12z"/>
<path d="M2640 2121 c0 -16 4 -32 9 -36 6 -3 9 7 8 22 -2 22 2 28 18 28 14 0
20 -6 19 -22 0 -13 3 -23 8 -23 5 0 8 12 6 28 -2 22 -8 28 -35 30 -31 3 -33 1
-33 -27z"/>
<path d="M2809 2143 c29 -4 32 -7 28 -29 -2 -13 0 -24 4 -24 5 0 9 14 9 30 0
28 -2 30 -37 28 l-38 -1 34 -4z"/>
<path d="M845 2111 c44 -20 54 -19 35 4 -7 8 -27 15 -44 15 l-31 -1 40 -18z"/>
<path d="M1249 2101 c12 -16 21 -34 21 -40 0 -6 6 -10 13 -8 6 1 11 -3 10 -10
-2 -8 4 -10 14 -6 11 4 14 3 9 -5 -4 -7 -1 -12 9 -12 12 0 15 6 10 21 -4 13
-3 19 3 16 5 -4 23 -3 39 2 24 7 35 5 48 -8 10 -9 15 -10 11 -3 -5 8 0 12 16
12 17 1 12 5 -17 15 -51 19 -75 19 -101 1 -18 -13 -23 -11 -56 20 -45 42 -56
44 -29 5z"/>
<path d="M680 2108 l-35 -11 60 -13 c33 -8 66 -15 74 -17 7 -2 25 -17 40 -34
26 -31 26 -31 84 -20 31 6 57 14 57 18 0 3 -10 14 -22 25 -12 10 -18 14 -14 7
4 -8 -7 -16 -34 -23 -39 -11 -42 -10 -63 17 -12 15 -22 32 -22 37 0 22 -71 30
-125 14z"/>
<path d="M1657 2076 c-3 -8 3 -16 15 -19 13 -4 17 -10 12 -18 -4 -8 -3 -10 5
-5 6 4 9 12 6 17 -4 5 -1 9 4 9 6 0 11 6 11 13 0 17 -47 20 -53 3z"/>
<path d="M162 2043 c1 -37 1 -37 5 -5 3 23 9 32 23 32 10 0 21 -6 23 -12 3 -8
6 -6 6 5 1 12 -7 17 -29 17 -28 0 -30 -2 -28 -37z"/>
<path d="M301 2048 c2 -30 2 -30 6 -6 3 20 11 28 31 31 24 4 24 4 -5 6 -31 1
-33 -1 -32 -31z"/>
<path d="M494 2072 c-51 -8 -65 -15 -121 -66 -42 -37 -83 -62 -132 -81 -67
-25 -89 -40 -78 -51 3 -3 38 4 78 16 41 12 90 23 109 23 52 1 163 -13 175 -22
22 -17 88 -20 116 -5 16 8 50 17 76 20 27 3 60 10 74 16 24 8 109 25 164 31
27 3 110 60 95 65 -6 2 -24 -5 -39 -16 -26 -19 -120 -52 -145 -52 -26 1 31 30
70 36 57 8 67 24 12 17 -24 -3 -70 -19 -103 -35 -32 -17 -71 -32 -85 -33 -14
-1 -38 -8 -54 -14 -16 -6 -34 -10 -40 -7 -13 4 59 37 89 41 12 1 30 7 41 14
17 11 16 11 -11 7 -248 -43 -355 -56 -355 -44 0 4 9 8 19 8 11 0 22 4 25 8 3
5 -8 7 -23 4 -16 -2 -39 1 -51 8 -22 12 -22 12 11 41 39 32 100 39 126 14 8
-9 18 -13 21 -10 3 3 -3 12 -14 19 -14 11 -16 18 -8 26 8 8 19 5 40 -14 22
-20 25 -25 12 -26 -12 0 -15 -5 -11 -16 3 -9 0 -20 -8 -25 -11 -7 -11 -9 4 -9
9 0 17 7 17 15 0 17 16 20 25 5 3 -5 15 -10 26 -10 18 0 15 7 -20 47 -28 34
-37 50 -28 55 11 8 -50 7 -99 0z m144 -146 c-10 -7 -16 -15 -14 -17 2 -2 -12
-5 -32 -6 l-37 -2 45 18 c55 23 60 24 38 7z"/>
<path d="M2860 2072 c0 -5 10 -8 22 -8 15 1 24 -7 29 -24 6 -23 7 -23 8 8 1
29 -2 32 -29 32 -16 0 -30 -4 -30 -8z"/>
<path d="M632 2053 c2 -5 12 -25 21 -45 17 -37 30 -47 41 -30 3 5 22 9 43 10
53 2 94 12 88 22 -4 6 -36 14 -100 24 -5 1 -23 7 -38 14 -32 13 -61 16 -55 5z"/>
<path d="M2105 2041 l-30 -7 33 -7 c22 -4 43 -2 60 8 l27 14 -30 -1 c-16 0
-43 -3 -60 -7z"/>
<path d="M1356 2004 c-19 -18 -19 -20 -6 -45 6 -10 17 -19 26 -19 12 0 12 3
-2 25 -15 23 -15 24 8 19 41 -9 51 -9 54 1 3 9 -39 35 -57 35 -4 0 -15 -7 -23
-16z"/>
<path d="M92 1978 c-2 -36 0 -38 28 -38 28 0 30 3 30 35 0 19 -4 35 -10 35 -5
0 -7 -13 -3 -30 5 -26 2 -30 -15 -30 -16 0 -22 8 -25 33 -4 31 -4 31 -5 -5z"/>
<path d="M2377 1995 c-27 -7 -56 -20 -65 -28 -9 -8 -30 -22 -47 -30 -30 -16
-30 -16 -5 -17 14 0 44 9 65 20 45 23 125 38 125 23 0 -5 -23 -17 -52 -28 -29
-10 -47 -20 -40 -23 7 -2 33 3 59 12 56 19 53 19 53 4 0 -7 14 -21 31 -30 17
-10 28 -22 24 -27 -3 -6 4 -15 15 -21 13 -7 20 -7 20 0 0 5 -3 10 -8 10 -4 0
-13 12 -19 28 -14 30 -91 123 -101 121 -4 0 -29 -7 -55 -14z"/>
<path d="M2818 2003 c17 -3 22 -10 20 -26 -4 -31 -38 -36 -38 -6 0 17 -3 20
-11 12 -19 -19 -2 -43 31 -43 28 0 30 3 30 35 0 32 -2 35 -27 34 -25 -2 -25
-2 -5 -6z"/>
<path d="M2181 1976 c-10 -12 -6 -14 24 -14 19 0 38 5 42 11 4 7 0 8 -12 4 -9
-4 -23 -3 -30 3 -9 7 -16 6 -24 -4z"/>
<path d="M2641 1963 c-1 -20 4 -23 34 -23 27 0 35 4 34 18 0 10 -3 12 -6 5 -7
-20 -51 -16 -56 5 -4 13 -5 11 -6 -5z"/>
<path d="M2136 1936 c9 -22 56 -50 80 -48 11 2 27 -4 34 -12 10 -13 10 -16 -4
-16 -9 0 -16 -4 -16 -10 0 -10 14 -14 38 -11 6 1 12 -2 12 -8 0 -5 -6 -12 -12
-15 -9 -3 -7 -9 6 -20 11 -9 16 -16 10 -16 -5 0 -30 20 -56 45 -46 44 -89 65
-55 27 22 -24 21 -33 0 -25 -26 10 -44 30 -41 45 2 7 -4 13 -13 13 -8 0 -27 8
-42 18 -14 9 -31 17 -37 17 -19 0 -10 -20 15 -32 14 -6 25 -15 25 -20 0 -20
63 -68 102 -78 53 -14 108 -40 108 -52 0 -4 5 -8 11 -8 8 0 10 23 7 70 -2 42
0 71 7 74 5 2 1 5 -11 5 -11 1 -29 8 -40 16 -10 8 -26 15 -34 15 -9 0 -33 9
-55 20 -47 24 -46 24 -39 6z"/>
<path d="M2580 1930 c-11 -8 -8 -9 13 -4 24 5 27 3 27 -19 0 -16 -7 -27 -17
-30 -14 -4 -12 -5 5 -6 19 -1 22 4 22 34 0 37 -18 46 -50 25z"/>
<path d="M2906 1910 c6 -26 4 -30 -14 -30 -11 0 -22 5 -24 12 -3 7 -7 6 -11
-5 -5 -14 0 -17 28 -17 32 0 35 3 35 29 0 17 -4 33 -10 36 -6 4 -7 -6 -4 -25z"/>
<path d="M1722 1910 c-16 -26 -15 -30 3 -30 8 0 15 4 15 9 0 5 3 16 6 25 9 23
-9 20 -24 -4z"/>
<path d="M2710 1890 c0 -16 7 -20 35 -20 19 0 35 4 35 9 0 4 -11 6 -25 3 -18
-3 -25 0 -25 12 0 9 -4 16 -10 16 -5 0 -10 -9 -10 -20z"/>
<path d="M1026 1881 c-4 -5 20 -37 52 -72 45 -47 63 -61 77 -55 16 6 13 11
-21 46 -21 21 -40 48 -40 59 -1 12 1 21 3 21 7 0 58 -34 81 -54 23 -20 23 -20
16 -1 -7 20 -7 20 14 1 12 -10 19 -23 16 -27 -10 -17 -57 0 -93 33 -21 20 -28
23 -16 9 40 -49 69 -70 90 -64 11 3 21 9 23 14 2 4 20 5 40 2 l37 -5 -28 25
c-15 14 -44 28 -64 32 -21 4 -54 15 -75 26 -39 20 -103 26 -112 10z"/>
<path d="M2333 1874 c0 -13 14 -15 88 -12 48 2 85 7 82 11 -3 5 -25 6 -48 2
-26 -3 -46 -2 -50 5 -10 17 -72 12 -72 -6z"/>
<path d="M855 1834 c-36 -39 -59 -77 -111 -184 -9 -19 -17 -55 -18 -80 -1 -28
-12 -66 -29 -98 -31 -59 -29 -80 3 -40 10 14 34 28 51 32 34 6 59 23 59 37 0
5 -17 -1 -37 -12 l-38 -21 26 23 c45 41 83 69 94 69 5 0 1 -7 -9 -15 -11 -8
-17 -17 -14 -20 3 -3 17 4 31 16 l27 20 -28 24 c-16 13 -47 30 -69 37 -35 10
-40 15 -32 30 13 24 28 23 99 -7 72 -30 71 -30 103 -2 35 30 34 37 -6 37 -18
0 -39 6 -47 13 -7 6 -4 -2 8 -20 35 -49 26 -49 -28 1 -27 25 -56 46 -65 46
-18 0 -19 12 -3 28 21 21 69 13 139 -25 l68 -38 33 20 c62 36 62 39 5 83 -29
21 -74 47 -100 57 -26 10 -50 22 -53 26 -9 14 -17 9 -59 -37z m102 -9 c25 -4
129 -61 138 -76 6 -9 -19 -14 -40 -9 -5 2 -21 4 -35 5 -14 2 -24 8 -22 14 1 7
-1 10 -6 7 -12 -7 -114 58 -105 68 4 4 17 4 28 1 11 -4 30 -8 42 -10z m-117
-256 c0 -13 -42 -17 -71 -7 -27 9 -37 27 -23 41 7 7 94 -24 94 -34z"/>
<path d="M91 1833 c-1 -30 2 -33 29 -33 22 0 30 5 29 18 0 10 -3 12 -6 5 -9
-25 -41 -14 -46 15 -4 25 -4 25 -6 -5z"/>
<path d="M2808 1853 c23 -3 32 -9 32 -23 0 -14 -9 -20 -32 -23 -32 -4 -32 -4
5 -5 35 -2 37 0 37 28 0 28 -2 30 -37 28 -37 -1 -37 -1 -5 -5z"/>
<path d="M371 1828 c-1 -26 2 -28 37 -26 36 1 36 1 5 5 -23 3 -33 10 -36 26
-4 18 -5 17 -6 -5z"/>
<path d="M1854 1787 c-47 -25 -124 -86 -124 -99 0 -4 10 -8 23 -8 12 0 29 -5
37 -10 11 -7 5 -8 -19 -3 -25 4 -32 3 -27 -5 4 -7 18 -12 32 -12 14 0 41 -7
62 -15 l37 -15 -25 21 -25 22 25 -8 c14 -5 35 -8 48 -7 12 1 22 -2 22 -7 0
-13 36 -20 51 -10 10 6 7 10 -11 17 l-24 9 24 13 c14 7 27 16 30 20 11 16 71
40 100 40 42 0 38 -17 -9 -36 -34 -13 -64 -44 -44 -44 13 0 98 44 105 54 5 7
13 5 25 -6 14 -15 15 -18 3 -19 -9 0 -7 -3 5 -8 17 -7 14 -11 -25 -29 -25 -11
-58 -25 -73 -31 -15 -6 -25 -16 -22 -21 4 -6 -1 -7 -12 -3 -34 12 -36 16 -13
28 34 18 7 29 -35 14 -19 -7 -35 -17 -35 -21 0 -5 -13 -2 -30 7 -33 17 -59 20
-44 6 14 -15 87 -43 79 -32 -9 15 2 14 30 -5 13 -9 30 -12 36 -8 7 4 9 3 6 -3
-4 -6 6 -16 22 -23 31 -13 78 -7 121 15 14 7 44 16 67 20 36 6 43 4 53 -14 9
-18 8 -21 -7 -21 -10 0 -38 -11 -62 -25 -23 -14 -49 -25 -57 -25 -8 0 -14 -4
-14 -10 0 -5 4 -10 9 -10 15 0 173 -129 203 -165 15 -18 39 -35 53 -37 30 -6
32 3 5 20 -11 7 -20 19 -20 27 0 12 4 13 18 4 15 -9 29 -7 67 10 27 12 79 26
117 33 73 12 85 28 29 39 -18 4 -56 23 -85 43 -29 20 -60 36 -69 36 -9 0 -17
5 -17 10 0 6 -12 10 -27 9 -25 0 -26 -1 -8 -9 17 -7 16 -9 -11 -9 -16 -1 -35
-6 -42 -13 -9 -9 -12 -6 -12 13 0 14 -9 34 -20 44 -11 10 -20 23 -20 28 0 18
-44 77 -58 77 -8 0 -10 -5 -6 -12 6 -10 4 -10 -7 0 -7 6 -21 12 -31 12 -10 0
-18 5 -18 11 0 6 9 8 22 3 20 -6 21 -5 9 10 -7 9 -19 16 -27 16 -7 0 -23 17
-35 39 -20 37 -23 39 -61 34 -32 -5 -44 -1 -66 19 -40 38 -141 45 -198 15z
m128 -36 c18 5 34 9 36 9 2 0 0 5 -4 12 -4 7 -3 8 4 4 26 -16 11 -46 -40 -79
-29 -19 -55 -30 -57 -24 -2 5 -7 3 -12 -4 -5 -8 -9 -9 -9 -3 0 7 -11 9 -27 7
-22 -4 -25 -2 -13 6 12 8 12 11 1 11 -11 0 -11 3 0 17 9 11 3 9 -15 -5 -31
-23 -59 -31 -38 -10 7 7 12 20 12 29 0 19 65 54 82 43 6 -4 8 -3 4 4 -3 5 0
12 6 15 7 2 19 -6 25 -19 11 -20 17 -22 45 -13z m263 -131 c-3 -5 -12 -10 -18
-10 -7 0 -41 -14 -76 -30 -85 -41 -107 -24 -25 19 57 29 132 42 119 21z m89
-116 c9 -4 21 -15 27 -25 8 -16 6 -21 -13 -29 -17 -6 -19 -9 -6 -9 12 -1 17
-8 15 -21 -4 -27 -13 -34 -34 -25 -18 8 -26 11 -40 14 -5 1 3 9 17 17 l25 15
-29 -6 c-25 -5 -28 -4 -18 8 10 12 5 16 -29 21 -49 8 -43 21 16 35 53 12 51
12 69 5z m206 -51 c14 -9 27 -20 30 -25 3 -4 24 -15 45 -23 l40 -15 -43 5
c-47 6 -119 -9 -172 -35 -27 -14 -41 -15 -60 -7 -21 9 -22 11 -7 14 15 4 17
11 12 43 -5 31 -3 40 12 49 29 17 115 13 143 -6z"/>
<path d="M2441 1414 c-49 -21 -35 -25 29 -8 75 19 81 22 40 23 -19 0 -50 -6
-69 -15z"/>
<path d="M160 1760 c0 -27 3 -30 33 -29 30 2 30 2 5 6 -19 3 -28 10 -28 23 0
13 9 20 28 23 25 4 25 4 -5 6 -30 1 -33 -2 -33 -29z"/>
<path d="M637 1766 c4 -22 1 -25 -28 -29 l-34 -4 38 -1 c35 -2 37 0 37 28 0
17 -4 30 -9 30 -4 0 -6 -11 -4 -24z"/>
<path d="M1677 1776 c-8 -20 20 -27 63 -16 l35 10 -38 -5 c-31 -3 -38 -1 -33
10 3 9 0 15 -8 15 -8 0 -16 -7 -19 -14z"/>
<path d="M2430 1760 c0 -27 3 -30 30 -30 17 0 30 4 30 9 0 4 -12 6 -26 3 -25
-4 -26 -3 -22 22 3 14 1 26 -3 26 -5 0 -9 -13 -9 -30z"/>
<path d="M2570 1760 c0 -28 3 -30 35 -30 32 0 35 2 35 30 0 28 -3 30 -35 30
-32 0 -35 -2 -35 -30z m55 0 c0 -8 -10 -16 -22 -18 -18 -3 -23 2 -23 18 0 16
5 21 23 18 12 -2 22 -10 22 -18z"/>
<path d="M2710 1760 c0 -28 3 -30 35 -30 30 0 35 3 34 23 -1 16 -2 18 -6 5 -7
-26 -53 -24 -53 1 0 15 8 21 33 24 31 4 31 4 -5 5 -36 2 -38 0 -38 -28z"/>
<path d="M2907 1766 c4 -21 1 -25 -23 -29 -28 -4 -28 -4 4 -6 29 -1 32 2 32
29 0 17 -4 30 -9 30 -4 0 -6 -11 -4 -24z"/>
<path d="M90 1690 c0 -27 3 -30 30 -30 27 0 30 3 30 30 0 27 -3 30 -30 30 -27
0 -30 -3 -30 -30z m50 0 c0 -13 -7 -20 -20 -20 -13 0 -20 7 -20 20 0 13 7 20
20 20 13 0 20 -7 20 -20z"/>
<path d="M230 1690 c0 -27 3 -30 30 -30 17 0 30 4 30 9 0 4 -11 6 -25 3 -20
-3 -25 0 -25 16 0 15 8 22 28 25 25 4 25 4 -5 6 -30 1 -33 -2 -33 -29z"/>
<path d="M371 1693 c-1 -31 1 -33 34 -33 19 0 35 4 35 8 0 5 -13 7 -29 4 -26
-4 -30 -1 -34 24 -4 28 -4 28 -6 -3z"/>
<path d="M2360 1690 c0 -27 3 -30 30 -30 17 0 30 4 30 9 0 4 -11 6 -25 3 -20
-3 -25 0 -25 16 0 11 6 23 13 25 7 3 5 6 -5 6 -13 1 -18 -7 -18 -29z"/>
<path d="M2500 1690 c0 -27 3 -30 30 -30 17 0 30 4 30 9 0 4 -11 6 -25 3 -20
-3 -25 0 -25 16 0 15 8 22 28 25 25 4 25 4 -5 6 -30 1 -33 -2 -33 -29z"/>
<path d="M2670 1714 c31 -5 43 -37 18 -47 -8 -3 -5 -6 5 -6 14 -1 18 5 15 27
-2 23 -8 27 -35 30 -33 2 -33 2 -3 -4z"/>
<path d="M2813 1713 c41 -6 37 -40 -5 -46 -32 -4 -32 -4 5 -5 35 -2 37 0 37
28 0 27 -3 30 -32 29 -31 -2 -31 -2 -5 -6z"/>
<path d="M2930 1690 c0 -27 3 -30 30 -30 17 0 30 4 30 9 0 4 -11 6 -25 3 -20
-3 -25 0 -25 16 0 11 6 23 13 25 7 3 5 6 -5 6 -13 1 -18 -7 -18 -29z"/>
<path d="M1637 1650 c-16 -5 -34 -13 -41 -19 -7 -6 -16 -8 -19 -4 -4 3 -13 0
-22 -7 -10 -8 -15 -9 -15 -1 0 6 -7 11 -16 11 -14 0 -16 -10 -12 -75 4 -60 2
-75 -9 -75 -8 0 -11 -4 -8 -10 10 -16 -3 -12 -45 16 -30 20 -59 29 -117 34
-43 5 -79 7 -81 5 -7 -6 91 -36 104 -31 20 8 51 -9 96 -52 35 -34 39 -35 56
-19 14 13 21 14 30 5 9 -9 12 -4 12 22 0 32 18 79 21 55 0 -5 7 12 14 39 8 28
12 53 9 58 -3 4 1 5 9 2 8 -3 17 2 21 11 3 9 20 22 38 30 36 15 20 18 -25 5z"/>
<path d="M301 1623 c-1 -31 1 -33 35 -33 19 0 33 4 30 9 -3 4 -17 6 -30 4 -21
-4 -25 -1 -29 23 -4 28 -4 28 -6 -3z"/>
<path d="M613 1643 c28 -5 39 -37 15 -46 -8 -3 -6 -6 5 -6 12 -1 17 7 17 29 0
27 -3 30 -32 29 -31 -2 -31 -2 -5 -6z"/>
<path d="M2430 1620 c0 -22 5 -30 18 -29 10 0 12 3 5 6 -22 8 -15 43 8 43 17
0 20 -5 17 -25 -3 -14 -1 -25 3 -25 5 0 9 14 9 30 0 27 -3 30 -30 30 -27 0
-30 -3 -30 -30z"/>
<path d="M2710 1620 c0 -16 4 -30 8 -30 5 0 8 10 8 23 -1 16 5 23 23 25 21 3
23 0 19 -22 -3 -14 -1 -26 3 -26 5 0 9 14 9 30 0 28 -3 30 -35 30 -32 0 -35
-2 -35 -30z"/>
<path d="M2878 1643 c28 -5 40 -32 21 -44 -11 -7 -11 -9 4 -9 12 0 17 8 17 30
0 27 -3 30 -32 29 -25 -1 -27 -3 -10 -6z"/>
<path d="M1668 1613 c20 -8 14 -21 -14 -30 -19 -6 -31 -23 -46 -63 -11 -30
-23 -67 -25 -82 -6 -31 -27 -42 -54 -28 -22 12 -25 0 -8 -31 7 -15 7 -24 -1
-33 -8 -10 -5 -15 12 -20 23 -6 23 -6 3 -22 -14 -11 -16 -18 -7 -21 6 -3 12
-12 12 -21 0 -15 -2 -15 -10 -2 -6 10 -8 -13 -5 -69 4 -70 3 -82 -10 -77 -18
7 -37 -26 -29 -49 4 -10 1 -21 -7 -25 -7 -5 -10 -12 -6 -17 5 -4 12 -1 17 7
13 21 24 -12 16 -50 -4 -23 -1 -33 14 -42 11 -7 20 -19 20 -27 0 -11 -4 -9
-15 5 -14 19 -14 19 -15 -1 0 -17 -2 -17 -10 -5 -5 8 -10 24 -10 36 0 11 -13
32 -28 47 -48 47 -57 30 -16 -30 14 -21 29 -40 34 -43 5 -3 10 -79 12 -168 2
-113 5 -155 12 -139 l9 22 5 -23 c2 -13 -3 -31 -11 -40 -28 -32 -38 -98 -17
-112 10 -7 21 -133 12 -145 -4 -5 -18 -10 -32 -10 -16 0 -28 -8 -35 -22 -10
-24 -25 -31 -25 -13 0 16 -62 50 -91 50 -36 0 -79 -36 -79 -66 0 -28 18 -32
27 -6 15 43 71 70 88 42 3 -5 13 -6 22 -3 10 4 14 2 10 -4 -4 -6 -1 -14 5 -16
16 -7 -9 -27 -32 -27 -13 0 -13 1 0 10 12 8 12 10 -5 10 -20 0 -59 -19 -40
-20 27 -1 -35 -25 -68 -26 -23 0 -42 -7 -50 -19 -11 -14 -17 -15 -35 -6 -45
24 -102 10 -102 -25 0 -42 23 -76 64 -95 44 -20 91 -10 101 21 8 26 56 33 62
10 6 -24 55 -43 108 -43 52 0 97 25 88 50 -4 11 -3 14 6 9 6 -4 9 -16 6 -26
-8 -26 39 -60 84 -60 42 0 83 24 75 45 -8 19 -66 37 -108 34 -19 -2 -41 3 -51
11 -16 13 -16 15 5 32 32 26 83 23 119 -8 17 -14 31 -31 31 -37 0 -16 78 -47
117 -47 20 0 36 7 42 17 9 17 12 17 58 0 37 -13 56 -15 75 -8 40 15 44 42 11
68 -15 13 -31 23 -34 23 -4 0 -9 7 -12 14 -8 20 20 10 50 -17 23 -20 37 -17
53 12 8 15 5 18 -18 18 -27 0 -91 8 -147 19 -24 4 -18 -1 25 -26 30 -17 59
-35 64 -40 17 -17 2 -19 -29 -6 -17 8 -45 19 -62 26 -19 7 -33 20 -33 29 0 11
-10 16 -36 17 l-35 1 30 -18 c31 -19 51 -47 51 -72 0 -11 -8 -14 -32 -11 -47
7 -127 36 -140 51 -16 20 11 16 87 -12 80 -30 99 -25 29 7 -36 17 -65 23 -112
21 -84 -2 -78 19 9 31 35 5 66 12 69 16 12 16 67 36 81 29 59 -29 101 -42 149
-46 51 -4 54 -3 36 11 -11 9 -31 16 -45 16 -14 0 -55 8 -91 18 -52 15 -66 23
-71 43 -4 13 -7 20 -8 15 -1 -5 -7 -3 -15 3 -10 9 -17 7 -27 -6 -12 -15 -12
-16 4 -10 11 4 16 3 12 -3 -9 -15 -26 -12 -39 6 -11 14 -13 14 -27 -3 -13 -16
-12 -17 2 -5 14 10 17 9 22 -7 3 -13 -1 -22 -12 -26 -24 -7 -36 -6 -36 4 0 5
-3 13 -7 17 -21 21 7 67 39 63 10 0 25 -1 33 0 13 1 13 2 0 11 -12 7 -127 3
-138 -5 -2 -2 0 -15 4 -29 l6 -27 12 22 c18 37 38 36 25 0 -6 -17 -9 -38 -6
-46 4 -9 1 -12 -7 -9 -7 3 -18 -7 -24 -21 -14 -29 -44 -44 -79 -37 -16 3 -22
9 -19 19 3 8 6 25 6 37 0 15 9 26 28 33 l27 12 -28 -6 c-22 -4 -26 -2 -21 10
7 20 27 27 45 16 22 -14 33 -11 19 5 -6 8 -21 17 -33 19 -19 4 -18 4 5 6 25 1
26 3 24 48 -2 27 2 64 9 83 10 30 10 37 -6 53 -14 15 -21 16 -37 8 -28 -15
-42 -14 -42 3 0 8 8 13 18 12 10 0 17 6 17 16 0 9 4 20 9 25 5 4 6 3 3 -3 -4
-7 0 -15 9 -18 15 -6 16 3 11 80 -3 52 -1 81 4 73 7 -11 9 -9 9 7 0 15 -8 23
-24 26 -14 3 -29 1 -33 -3 -4 -4 -8 6 -9 24 0 18 -4 48 -8 67 -5 26 -4 31 3
20 6 -8 11 -25 11 -37 0 -30 20 -40 27 -14 3 11 9 18 14 15 5 -3 5 -13 -1 -24
-7 -13 -6 -19 4 -23 15 -6 26 20 26 67 0 25 -2 27 -16 15 -22 -18 -42 -20 -48
-4 -2 7 4 15 14 18 14 4 20 19 25 73 4 38 12 75 17 81 6 7 8 27 6 43 -3 17 -1
33 4 36 13 8 9 24 -6 24 -12 0 -14 13 -10 63 3 34 7 68 9 75 3 8 0 10 -7 6 -8
-5 -9 -2 -3 12 4 10 10 32 13 47 4 23 17 34 71 61 36 19 92 39 124 46 52 10
65 9 148 -15 113 -32 180 -31 74 2 -38 11 -88 25 -110 30 -48 10 -53 27 -7 30
18 1 43 8 55 16 20 13 28 13 54 2 17 -7 33 -11 35 -9 3 2 15 -7 28 -21 19 -20
20 -25 7 -25 -39 0 -23 -21 29 -36 34 -10 52 -19 44 -24 -7 -4 7 -12 35 -19
26 -7 50 -9 53 -6 3 3 2 6 -1 6 -4 1 -10 2 -14 3 -12 2 -103 66 -103 72 0 3 9
0 19 -6 11 -5 23 -10 28 -10 12 0 -37 32 -53 34 -8 1 -31 19 -52 39 -41 40
-39 39 -84 27 -19 -6 -36 -6 -42 0 -8 5 -33 -5 -71 -29 -33 -21 -79 -41 -102
-45 -24 -3 -68 -17 -100 -31 -31 -14 -57 -24 -59 -22 -8 8 43 137 54 137 7 0
31 12 54 27 38 23 40 27 23 34 -11 4 -31 8 -45 8 -14 -1 -19 -3 -12 -6z m-88
-562 c0 -5 -5 -11 -11 -13 -11 -4 -15 -20 -18 -78 l-1 -25 -15 29 c-17 32 -20
49 -5 26 7 -10 10 -11 11 -2 1 6 3 17 4 22 1 6 3 19 4 30 1 19 31 30 31 11z
m-89 -787 c-4 -38 -10 -47 -27 -40 -8 3 -14 1 -14 -4 0 -6 4 -10 8 -10 5 0 16
-6 26 -13 16 -12 17 -16 5 -35 -10 -16 -24 -22 -48 -22 -33 0 -34 1 -15 16 18
15 18 15 -3 4 -13 -6 -33 -9 -45 -7 -13 2 -17 2 -10 0 7 -3 10 -8 7 -13 -6
-10 31 -24 42 -17 5 3 14 -1 21 -9 20 -22 -26 -36 -75 -22 -36 11 -36 12 -13
18 18 4 21 8 12 14 -7 4 -23 5 -35 2 -12 -3 -29 -1 -37 4 -12 8 -12 12 0 35
19 35 59 55 109 55 32 0 39 3 35 15 -5 11 -2 13 11 9 15 -6 16 -4 6 14 -9 17
-8 23 6 31 27 16 38 7 34 -25z m-241 -85 c0 -20 -24 -26 -35 -9 -8 13 14 42
26 34 5 -3 9 -14 9 -25z m-33 -35 c11 -15 11 -20 -2 -33 -13 -14 -17 -13 -31
7 -8 12 -20 20 -25 17 -5 -4 -9 2 -9 12 0 11 -5 24 -11 30 -8 8 2 7 27 -2 20
-7 44 -21 51 -31z m-44 -36 c8 2 8 -1 0 -9 -10 -10 -20 -10 -48 4 -19 9 -36
21 -36 27 -1 5 -2 16 -3 23 -5 31 10 28 42 -9 19 -21 39 -38 45 -36z m452 -33
c0 -16 -45 -18 -90 -4 -37 11 -38 13 -15 18 32 9 105 -1 105 -14z"/>
<path d="M230 1550 c0 -22 5 -30 18 -29 10 0 12 3 5 6 -25 9 -14 41 15 46 25
4 25 4 -5 6 -30 1 -33 -2 -33 -29z"/>
<path d="M370 1550 c0 -22 5 -30 18 -29 10 0 12 3 5 6 -7 2 -13 13 -13 23 0
14 9 20 33 23 31 4 31 4 -5 5 -36 2 -38 0 -38 -28z"/>
<path d="M510 1550 c0 -16 4 -30 9 -30 4 0 6 11 4 24 -4 22 -1 25 28 29 l34 4
-37 1 c-36 2 -38 0 -38 -28z"/>
<path d="M2501 1553 c2 -24 2 -25 6 -5 5 24 38 31 46 10 3 -8 6 -6 6 5 1 12
-7 17 -29 17 -26 0 -30 -3 -29 -27z"/>
<path d="M2640 1550 c0 -16 4 -30 9 -30 4 0 6 12 3 26 -5 25 -3 26 26 22 17
-2 29 -1 26 4 -3 4 -18 8 -35 8 -26 0 -29 -3 -29 -30z"/>
<path d="M2784 1571 c3 -5 15 -7 26 -4 24 6 40 -25 19 -38 -11 -7 -11 -9 4 -9
12 0 17 8 17 30 0 28 -3 30 -36 30 -19 0 -33 -4 -30 -9z"/>
<path d="M1160 1545 c-16 -9 -39 -12 -65 -8 -61 9 -38 -4 30 -16 33 -6 83 -23
111 -37 41 -21 56 -24 70 -15 18 10 18 10 1 11 -10 0 -32 14 -49 30 -26 27
-60 51 -70 50 -2 -1 -14 -7 -28 -15z"/>
<path d="M1025 1510 c-22 -9 -22 -9 54 -30 24 -6 61 -23 82 -36 44 -28 67 -30
95 -9 18 14 18 14 -7 15 -14 0 -62 16 -106 35 -87 38 -88 38 -118 25z"/>
<path d="M160 1480 c0 -16 4 -30 9 -30 4 0 6 11 4 24 -4 21 -1 25 23 29 28 4
28 4 -3 6 -30 1 -33 -2 -33 -29z"/>
<path d="M2710 1501 c0 -5 9 -7 20 -4 11 3 27 0 35 -7 12 -10 15 -9 15 4 0 12
-9 16 -35 16 -19 0 -35 -4 -35 -9z"/>
<path d="M2854 1501 c3 -4 17 -6 30 -4 21 4 25 1 29 -23 4 -28 4 -28 6 4 1 30
-1 32 -35 32 -19 0 -33 -4 -30 -9z"/>
<path d="M1342 1460 c-12 -11 -28 -20 -37 -20 -8 0 -15 -4 -15 -9 0 -5 -9 -13
-21 -16 -11 -4 -19 -9 -16 -11 2 -3 25 5 51 16 57 24 68 25 37 4 -14 -11 -21
-23 -18 -35 3 -12 -4 -25 -21 -38 -31 -22 -25 -38 7 -21 24 12 25 10 9 -25
-14 -30 -48 -33 -55 -5 -3 11 -9 20 -14 20 -5 0 -9 11 -9 25 0 30 -11 32 -35
5 -15 -17 -16 -23 -5 -33 10 -10 12 -9 7 5 -3 10 -2 20 2 23 5 3 16 -15 24
-40 17 -48 13 -189 -6 -213 -5 -7 -7 -15 -4 -19 9 -8 -12 -33 -28 -33 -9 0
-11 15 -8 52 2 28 0 54 -5 57 -4 3 -21 29 -37 56 -25 41 -30 46 -33 28 -2 -12
4 -36 14 -54 44 -87 40 -142 -13 -176 -45 -30 -50 -29 -45 6 4 32 -31 106 -55
115 -16 7 -17 11 7 -51 22 -60 24 -133 3 -133 -7 0 -13 -4 -13 -8 0 -9 -37
-26 -107 -51 -18 -6 -46 -16 -61 -22 -28 -12 -102 -5 -102 9 0 4 49 61 109
127 60 66 106 123 102 127 -11 12 -53 -3 -47 -18 6 -16 -19 -38 -33 -29 -6 3
-9 0 -6 -7 5 -13 -107 -138 -124 -138 -11 0 -31 78 -28 110 7 64 21 102 48
124 16 14 29 32 29 41 0 11 5 15 16 11 8 -3 12 -2 9 4 -3 6 -4 10 0 10 9 0 50
-24 57 -35 4 -6 8 -2 8 8 0 17 1 17 17 2 9 -10 26 -15 39 -12 13 2 21 0 18 -4
-3 -5 1 -9 8 -9 10 0 9 -3 -1 -9 -9 -6 -22 -6 -33 0 -11 6 -18 6 -18 0 0 -5
13 -16 30 -24 l30 -15 66 75 c36 41 63 78 60 80 -3 3 -12 1 -20 -6 -11 -9 -17
-8 -29 3 -8 8 -32 18 -53 22 -21 3 -47 11 -58 16 -14 7 -16 7 -11 -2 5 -8 2
-10 -11 -7 -11 3 -36 9 -56 13 -21 3 -38 10 -38 15 0 5 -4 9 -9 9 -10 0 -18
-20 -26 -61 -3 -12 -9 -25 -13 -28 -5 -3 -13 -17 -17 -31 -4 -14 -18 -39 -31
-57 -39 -52 -50 -111 -36 -193 18 -105 16 -147 -8 -162 -11 -7 -20 -16 -20
-20 0 -14 31 -8 58 11 16 10 52 20 87 23 120 11 244 63 275 115 13 22 42 44
90 68 88 44 110 76 110 159 0 53 3 61 34 92 18 18 31 36 28 38 -7 7 29 136 38
136 4 0 10 -10 13 -22 4 -12 9 -19 13 -16 10 10 -16 78 -30 78 -7 0 -22 -9
-34 -20z m-357 -213 c56 -24 58 -26 33 -32 -16 -4 -44 -1 -70 9 -78 28 -117
35 -122 23 -3 -8 -8 -8 -15 3 -5 8 -7 18 -4 23 9 16 117 0 178 -26z"/>
<path d="M961 1461 c-8 -5 -20 -7 -28 -4 -12 5 -76 -44 -99 -76 -11 -15 -4
-17 56 -17 54 -1 82 -8 136 -33 70 -33 97 -33 114 -1 9 16 8 18 -5 13 -9 -3
-38 7 -66 21 -52 29 -159 48 -159 28 0 -5 -9 -8 -20 -5 -27 7 -25 17 5 31 49
22 111 14 187 -24 59 -30 75 -34 95 -25 27 12 31 31 5 31 -9 0 -49 13 -87 29
-87 36 -116 43 -134 32z"/>
<path d="M90 1410 c0 -16 4 -30 8 -30 5 0 8 10 8 23 -1 13 5 22 14 22 9 0 15
-9 15 -22 0 -12 4 -25 8 -29 4 -4 7 9 7 29 0 34 -2 37 -30 37 -27 0 -30 -3
-30 -30z"/>
<path d="M370 1404 c0 -19 4 -33 9 -30 4 3 6 18 3 32 -4 25 -3 26 22 22 14 -3
26 -1 26 3 0 5 -13 9 -30 9 -28 0 -30 -3 -30 -36z"/>
<path d="M510 1405 c0 -19 -4 -35 -8 -35 -4 0 -8 -16 -8 -35 0 -19 4 -35 8
-35 4 0 8 -16 8 -35 0 -19 4 -35 10 -35 5 0 7 13 3 31 -6 31 -5 32 25 27 17
-2 29 -1 26 4 -3 4 -18 8 -35 8 -25 0 -29 4 -29 28 1 15 5 46 9 70 5 23 4 42
0 42 -5 0 -9 -16 -9 -35z"/>
<path d="M556 1426 c16 -13 17 -18 7 -35 -11 -17 -10 -19 2 -15 9 4 15 19 15
35 0 23 -4 29 -22 29 -21 0 -21 0 -2 -14z"/>
<path d="M2780 1430 c0 -5 13 -7 31 -3 30 6 32 5 27 -20 -3 -15 -1 -27 3 -27
5 0 9 14 9 30 0 28 -3 30 -35 30 -19 0 -35 -4 -35 -10z"/>
<path d="M162 1333 l1 -38 4 34 c4 29 7 32 29 28 13 -2 24 0 24 4 0 5 -13 9
-30 9 -28 0 -30 -2 -28 -37z"/>
<path d="M1722 1333 l1 -38 4 34 c4 29 7 32 29 28 13 -2 24 0 24 4 0 5 -13 9
-30 9 -28 0 -30 -2 -28 -37z"/>
<path d="M1862 1338 c3 -29 7 -33 36 -36 17 -2 32 1 32 7 0 6 -12 8 -30 5 -27
-6 -30 -4 -30 19 0 14 6 28 13 30 7 3 4 6 -6 6 -15 1 -18 -5 -15 -31z"/>
<path d="M2860 1362 c0 -5 10 -8 22 -8 26 1 38 -32 16 -45 -10 -7 -9 -9 5 -9
13 0 17 8 17 35 0 32 -2 35 -30 35 -16 0 -30 -4 -30 -8z"/>
<path d="M2648 1340 c-25 -5 -56 -18 -67 -29 -13 -13 -34 -21 -53 -21 -24 0
-29 -3 -20 -12 9 -9 26 -7 72 5 65 19 116 22 122 8 2 -4 13 -12 26 -15 21 -7
22 -5 16 21 -8 34 -22 53 -38 52 -6 -1 -32 -5 -58 -9z"/>
<path d="M90 1265 c0 -32 2 -35 30 -35 17 0 30 4 30 9 0 4 -11 6 -25 3 -22 -4
-25 -1 -25 23 0 24 3 27 25 23 14 -3 25 -1 25 3 0 5 -13 9 -30 9 -28 0 -30 -3
-30 -35z"/>
<path d="M1790 1265 c0 -19 4 -35 8 -35 5 0 6 14 4 31 -4 30 -3 32 22 27 14
-3 26 -1 26 3 0 5 -13 9 -30 9 -28 0 -30 -3 -30 -35z"/>
<path d="M1937 1293 c-4 -3 -7 -13 -7 -22 1 -14 2 -13 11 2 13 23 49 22 49 -1
0 -10 -5 -23 -12 -30 -9 -9 -8 -12 5 -12 13 0 17 9 17 35 0 32 -3 35 -28 35
-16 0 -32 -3 -35 -7z"/>
<path d="M2077 1293 c-4 -3 -7 -18 -7 -33 0 -14 -5 -31 -12 -38 -7 -7 -9 -12
-4 -12 15 0 31 26 31 50 0 18 6 26 23 28 18 3 22 -1 22 -22 0 -15 -7 -26 -17
-29 -14 -4 -12 -5 5 -6 19 -1 22 4 22 34 0 32 -3 35 -28 35 -16 0 -32 -3 -35
-7z"/>
<path d="M2220 1292 c0 -5 10 -8 23 -8 16 1 23 -5 25 -23 3 -21 0 -23 -22 -19
-14 3 -26 1 -26 -4 0 -5 12 -8 28 -6 22 2 28 8 30 36 3 30 1 32 -27 32 -17 0
-31 -4 -31 -8z"/>
<path d="M2818 1293 c24 -5 32 -47 10 -56 -8 -3 -6 -6 5 -6 13 -1 17 7 17 34
0 32 -2 35 -27 34 -24 -2 -25 -2 -5 -6z"/>
<path d="M2454 1241 c20 -22 53 -33 62 -20 3 5 -1 9 -8 9 -7 0 -26 7 -42 15
-29 16 -29 15 -12 -4z"/>
<path d="M2532 1242 c6 -7 17 -11 25 -8 17 7 88 -30 88 -46 0 -6 7 -13 15 -15
12 -4 12 -3 2 5 -10 7 -6 12 17 21 30 13 34 45 4 34 -10 -4 -14 -2 -10 5 5 7
-18 12 -72 14 -64 2 -77 1 -69 -10z"/>
<path d="M2741 1226 c-9 -10 -8 -16 4 -26 17 -15 20 -36 4 -45 -6 -4 -9 0 -7
11 2 11 -3 19 -9 18 -49 -4 -48 -3 -25 -24 12 -11 27 -20 35 -20 18 0 28 -10
21 -22 -3 -5 -12 -4 -20 3 -10 8 -14 8 -14 0 0 -6 11 -18 24 -26 13 -9 27 -27
30 -41 4 -13 11 -24 16 -24 12 0 13 -3 -4 56 -8 27 -18 70 -21 97 -8 52 -17
64 -34 43z"/>
<path d="M1860 1196 c0 -35 1 -36 36 -36 19 0 33 4 30 9 -3 4 -18 6 -32 3 -25
-4 -26 -3 -22 22 3 14 1 29 -3 32 -5 3 -9 -11 -9 -30z"/>
<path d="M2340 1199 c0 -28 -3 -31 -25 -27 -14 3 -25 1 -25 -3 0 -5 14 -9 30
-9 28 0 30 3 30 35 0 19 -2 35 -5 35 -3 0 -5 -14 -5 -31z"/>
<path d="M161 1193 c-1 -30 2 -33 29 -33 17 0 30 4 30 9 0 4 -11 6 -24 4 -21
-4 -25 -1 -29 23 -4 28 -4 28 -6 -3z"/>
<path d="M300 1190 c0 -27 3 -30 30 -30 17 0 30 4 30 9 0 4 -12 6 -26 3 -25
-4 -26 -3 -22 22 3 14 1 26 -3 26 -5 0 -9 -13 -9 -30z"/>
<path d="M494 1204 c4 -9 1 -23 -5 -30 -9 -11 -8 -14 5 -14 11 0 16 9 16 30 0
17 -5 30 -11 30 -6 0 -8 -7 -5 -16z"/>
<path d="M581 1193 c-1 -31 1 -33 34 -33 19 0 35 4 35 8 0 5 -13 7 -29 4 -26
-4 -30 -1 -34 24 -4 28 -4 28 -6 -3z"/>
<path d="M1720 1190 c0 -27 3 -30 30 -30 22 0 30 5 29 18 0 10 -3 12 -6 5 -2
-7 -14 -13 -25 -13 -16 0 -19 5 -16 25 3 14 1 25 -3 25 -5 0 -9 -13 -9 -30z"/>
<path d="M2200 1194 c0 -23 -3 -26 -25 -22 -14 3 -25 1 -25 -3 0 -5 14 -9 30
-9 27 0 30 3 30 30 0 17 -2 30 -5 30 -3 0 -5 -12 -5 -26z"/>
<path d="M2907 1196 c4 -21 1 -25 -23 -29 -28 -4 -28 -4 4 -6 29 -1 32 2 32
29 0 17 -4 30 -9 30 -4 0 -6 -11 -4 -24z"/>
<path d="M1792 1128 c-2 -36 0 -38 28 -38 17 0 30 4 30 9 0 4 -11 6 -24 4 -22
-4 -25 -1 -29 28 l-4 34 -1 -37z"/>
<path d="M2270 1129 c0 -30 -2 -31 -30 -25 -19 3 -29 2 -25 -4 3 -6 19 -10 36
-10 27 0 29 3 29 35 0 19 -2 35 -5 35 -3 0 -5 -14 -5 -31z"/>
<path d="M2410 1130 c0 -41 -37 -43 -43 -2 -4 25 -4 25 -6 -5 -1 -30 2 -33 29
-33 28 0 30 3 30 35 0 19 -2 35 -5 35 -3 0 -5 -13 -5 -30z"/>
<path d="M371 1123 c-1 -32 0 -33 37 -31 36 1 36 1 5 5 -26 3 -33 9 -36 31 -4
24 -4 24 -6 -5z"/>
<path d="M510 1120 c0 -28 2 -30 38 -28 l37 1 -34 4 c-29 4 -32 7 -28 29 2 13
0 24 -4 24 -5 0 -9 -13 -9 -30z"/>
<path d="M1417 1126 c4 -21 1 -25 -23 -29 -28 -4 -28 -4 4 -6 29 -1 32 2 32
29 0 17 -4 30 -9 30 -4 0 -6 -11 -4 -24z"/>
<path d="M1984 1128 c1 -19 -4 -23 -26 -23 -16 1 -28 -3 -28 -7 0 -4 16 -8 35
-8 32 0 35 2 35 30 0 17 -4 30 -8 30 -5 0 -8 -10 -8 -22z"/>
<path d="M2501 1123 c-1 -30 2 -33 29 -33 17 0 30 4 30 9 0 4 -11 6 -24 4 -21
-4 -25 -1 -29 23 -4 28 -4 28 -6 -3z"/>
<path d="M160 1050 c0 -27 3 -30 30 -30 22 0 30 5 29 18 0 10 -3 12 -6 5 -2
-7 -13 -13 -24 -13 -22 0 -27 35 -6 43 7 3 5 6 -5 6 -13 1 -18 -7 -18 -29z"/>
<path d="M300 1050 c0 -28 2 -30 38 -28 l37 1 -34 4 c-29 4 -32 7 -28 29 2 13
0 24 -4 24 -5 0 -9 -13 -9 -30z"/>
<path d="M488 1073 c6 -2 12 -14 12 -25 0 -17 -5 -20 -30 -16 -16 3 -30 1 -30
-4 0 -4 16 -8 35 -8 32 0 35 2 35 30 0 22 -5 30 -17 29 -11 0 -13 -3 -5 -6z"/>
<path d="M1350 1054 c0 -23 -3 -26 -25 -22 -14 3 -25 1 -25 -3 0 -5 14 -9 30
-9 27 0 30 3 30 30 0 17 -2 30 -5 30 -3 0 -5 -12 -5 -26z"/>
<path d="M1720 1050 c0 -27 3 -30 30 -30 27 0 30 3 30 30 0 17 -4 30 -9 30 -4
0 -6 -11 -3 -25 3 -21 0 -25 -18 -25 -18 0 -21 4 -18 25 3 14 1 25 -3 25 -5 0
-9 -13 -9 -30z"/>
<path d="M1860 1050 c0 -27 3 -30 30 -30 17 0 30 4 30 9 0 4 -12 6 -26 3 -25
-4 -26 -3 -22 22 3 14 1 26 -3 26 -5 0 -9 -13 -9 -30z"/>
<path d="M2000 1050 c0 -28 2 -30 38 -29 36 1 36 2 7 8 -23 5 -29 12 -28 29 2
12 -2 22 -7 22 -6 0 -10 -13 -10 -30z"/>
<path d="M917 1018 c4 -7 6 -32 6 -56 -1 -25 2 -40 7 -37 6 4 10 15 10 26 0
11 7 22 16 26 13 5 12 9 -7 29 -24 25 -46 33 -32 12z"/>
<path d="M90 980 c0 -27 3 -30 30 -30 27 0 30 3 30 30 0 27 -3 30 -30 30 -27
0 -30 -3 -30 -30z m50 0 c0 -13 -7 -20 -20 -20 -13 0 -20 7 -20 20 0 13 7 20
20 20 13 0 20 -7 20 -20z"/>
<path d="M230 980 c0 -27 3 -30 30 -30 17 0 30 4 30 9 0 4 -11 6 -25 3 -20 -3
-25 0 -25 16 0 15 8 22 28 25 25 4 25 4 -5 6 -30 1 -33 -2 -33 -29z"/>
<path d="M370 980 c0 -27 3 -30 33 -29 30 2 30 2 5 6 -20 3 -28 10 -28 25 0
16 5 19 25 16 14 -3 25 -1 25 3 0 5 -13 9 -30 9 -27 0 -30 -3 -30 -30z"/>
<path d="M510 1002 c0 -5 14 -7 30 -4 25 4 30 1 30 -16 0 -11 -5 -23 -10 -25
-6 -3 -5 -4 2 -3 7 1 14 15 16 29 3 25 0 27 -32 27 -20 0 -36 -4 -36 -8z"/>
<path d="M1268 1003 c6 -2 12 -13 12 -24 0 -24 -35 -26 -49 -1 -9 15 -10 15
-11 -5 0 -20 5 -23 35 -23 32 0 35 2 35 30 0 22 -5 30 -17 29 -11 0 -13 -3 -5
-6z"/>
<path d="M1650 980 c0 -27 3 -30 30 -30 17 0 30 4 30 9 0 4 -11 6 -25 3 -20
-3 -25 0 -25 16 0 15 8 22 28 25 25 4 25 4 -5 6 -30 1 -33 -2 -33 -29z"/>
<path d="M1790 980 c0 -27 3 -30 30 -30 17 0 30 4 30 9 0 4 -11 6 -25 3 -21
-3 -25 0 -25 18 0 18 4 21 25 18 14 -3 25 -1 25 3 0 5 -13 9 -30 9 -27 0 -30
-3 -30 -30z"/>
<path d="M1958 1003 c24 -3 32 -9 32 -25 0 -17 -5 -20 -29 -16 -17 2 -28 1
-25 -4 3 -4 18 -8 35 -8 26 0 29 3 29 30 0 28 -2 30 -37 28 -37 -1 -37 -1 -5
-5z"/>
<path d="M2220 980 c0 -27 3 -30 30 -30 27 0 30 3 30 30 0 17 -4 30 -9 30 -4
0 -6 -11 -3 -25 3 -21 0 -25 -18 -25 -18 0 -21 4 -18 25 3 14 1 25 -3 25 -5 0
-9 -13 -9 -30z"/>
<path d="M2360 980 c0 -27 3 -30 33 -29 30 1 30 2 7 8 -17 5 -25 14 -24 29 0
12 -3 22 -8 22 -4 0 -8 -13 -8 -30z"/>
<path d="M2500 980 c0 -22 5 -30 18 -29 10 0 12 3 5 6 -21 8 -16 43 6 43 14 0
21 -8 24 -27 4 -26 4 -26 6 5 1 29 -2 32 -29 32 -27 0 -30 -3 -30 -30z"/>
<path d="M2640 980 c0 -28 3 -30 35 -30 32 0 35 2 35 30 0 17 -4 30 -8 30 -5
0 -8 -10 -8 -22 1 -17 -5 -24 -21 -26 -17 -3 -23 2 -23 16 0 11 6 23 13 25 7
3 5 6 -5 6 -13 1 -18 -7 -18 -29z"/>
<path d="M2834 988 c1 -17 -6 -24 -29 -29 -29 -6 -29 -7 8 -8 35 -1 37 1 37
29 0 17 -4 30 -8 30 -5 0 -8 -10 -8 -22z"/>
<path d="M160 910 c0 -27 3 -30 30 -30 17 0 30 4 30 9 0 4 -11 6 -25 3 -21 -3
-25 0 -25 18 0 18 4 21 25 18 14 -3 25 -1 25 3 0 5 -13 9 -30 9 -27 0 -30 -3
-30 -30z"/>
<path d="M300 910 c0 -28 2 -30 38 -28 36 1 36 1 5 5 -24 3 -33 9 -33 23 0 14
9 20 33 23 31 4 31 4 -5 5 -36 2 -38 0 -38 -28z"/>
<path d="M1150 910 c0 -22 5 -30 18 -29 10 0 12 3 5 6 -7 2 -13 14 -13 25 0
17 5 20 30 16 17 -3 30 -1 30 4 0 4 -16 8 -35 8 -32 0 -35 -2 -35 -30z"/>
<path d="M1324 933 c24 -4 27 -8 23 -29 -2 -13 0 -24 4 -24 5 0 9 14 9 30 0
27 -3 30 -32 29 -32 -2 -32 -2 -4 -6z"/>
<path d="M2000 925 c0 -8 5 -15 10 -15 6 0 10 5 10 10 0 6 7 10 15 10 21 0 31
-30 14 -41 -11 -7 -11 -9 4 -9 12 0 17 8 17 30 0 28 -3 30 -35 30 -24 0 -35
-5 -35 -15z"/>
<path d="M2290 910 c0 -27 3 -30 30 -30 17 0 30 4 30 9 0 4 -11 6 -25 3 -21
-3 -25 0 -25 18 0 18 4 21 25 18 14 -3 25 -1 25 3 0 5 -13 9 -30 9 -27 0 -30
-3 -30 -30z"/>
<path d="M2430 910 c0 -16 4 -30 9 -30 4 0 6 12 3 26 -4 25 -3 26 22 22 14 -3
26 -1 26 3 0 5 -13 9 -30 9 -27 0 -30 -3 -30 -30z"/>
<path d="M2609 933 c18 -4 22 -10 18 -29 -2 -13 0 -24 4 -24 5 0 9 14 9 30 0
26 -3 30 -27 29 -26 -2 -26 -2 -4 -6z"/>
<path d="M2710 910 c0 -28 3 -30 35 -30 32 0 35 2 35 30 0 28 -3 30 -35 30
-32 0 -35 -2 -35 -30z m60 0 c0 -15 -7 -20 -25 -20 -18 0 -25 5 -25 20 0 15 7
20 25 20 18 0 25 -5 25 -20z"/>
<path d="M2854 931 c3 -4 17 -6 31 -3 20 3 25 0 25 -16 0 -11 -8 -23 -17 -25
-14 -4 -12 -5 5 -6 18 -1 22 4 22 29 0 28 -3 30 -36 30 -19 0 -33 -4 -30 -9z"/>
<path d="M91 838 c2 -32 2 -32 6 -4 4 24 8 27 29 23 13 -2 24 0 24 4 0 5 -13
9 -30 9 -27 0 -30 -3 -29 -32z"/>
<path d="M230 840 c0 -16 4 -30 9 -30 4 0 6 12 3 26 -4 25 -3 26 22 22 14 -3
29 -1 32 3 3 5 -11 9 -30 9 -33 0 -36 -2 -36 -30z"/>
<path d="M524 861 c3 -5 15 -7 26 -4 15 4 20 0 20 -15 0 -11 -6 -23 -12 -25
-8 -3 -6 -6 5 -6 12 -1 17 7 17 29 0 27 -3 30 -31 30 -16 0 -28 -4 -25 -9z"/>
<path d="M1222 843 c2 -23 8 -29 36 -31 30 -3 32 -1 32 27 0 29 -3 31 -36 31
-33 0 -35 -2 -32 -27z m56 -6 c2 -11 -3 -17 -16 -17 -24 0 -32 8 -25 26 7 20
37 13 41 -9z"/>
<path d="M1650 840 c0 -16 4 -30 9 -30 4 0 6 11 3 25 -3 20 0 25 16 25 15 0
22 -8 25 -27 4 -26 4 -26 6 5 1 29 -2 32 -29 32 -27 0 -30 -3 -30 -30z"/>
<path d="M1790 840 c0 -16 4 -30 8 -30 5 0 8 10 8 22 -1 15 7 24 24 29 23 6
23 7 -7 8 -30 1 -33 -2 -33 -29z"/>
<path d="M1931 838 c2 -31 2 -31 6 -5 3 21 10 27 30 27 22 0 25 -4 21 -25 -3
-14 -1 -25 3 -25 5 0 9 14 9 30 0 28 -3 30 -35 30 -33 0 -35 -2 -34 -32z"/>
<path d="M2103 863 c28 -5 39 -37 15 -46 -8 -3 -6 -6 5 -6 12 -1 17 7 17 29 0
27 -3 30 -32 29 -31 -2 -31 -2 -5 -6z"/>
<path d="M2360 840 c0 -16 4 -30 9 -30 4 0 6 12 3 26 -4 25 -3 26 22 20 15 -4
26 -2 26 4 0 5 -13 10 -30 10 -27 0 -30 -3 -30 -30z"/>
<path d="M2500 840 c0 -16 4 -30 9 -30 4 0 6 12 3 26 -4 25 -3 26 22 22 14 -3
26 -1 26 3 0 5 -13 9 -30 9 -27 0 -30 -3 -30 -30z"/>
<path d="M2640 862 c0 -5 13 -7 29 -4 22 3 30 0 34 -15 4 -15 5 -14 6 5 1 19
-4 22 -34 22 -19 0 -35 -4 -35 -8z"/>
<path d="M160 770 c0 -16 4 -30 9 -30 4 0 6 11 4 24 -4 21 -1 25 23 29 28 4
28 4 -3 6 -30 1 -33 -2 -33 -29z"/>
<path d="M301 768 c2 -30 2 -30 6 -6 3 22 10 28 36 31 31 4 31 4 -5 5 -37 2
-38 1 -37 -30z"/>
<path d="M1011 768 c2 -32 2 -32 6 -4 4 25 7 28 34 22 19 -3 28 -2 24 4 -3 6
-19 10 -36 10 -26 0 -29 -3 -28 -32z"/>
<path d="M1154 791 c3 -4 18 -6 32 -3 25 4 26 3 22 -22 -3 -14 -1 -26 3 -26 5
0 9 14 9 30 0 28 -3 30 -36 30 -19 0 -33 -4 -30 -9z"/>
<path d="M1294 793 c4 -4 17 -8 29 -8 16 0 22 -6 21 -22 0 -13 3 -23 8 -23 4
0 8 14 8 30 0 28 -3 30 -37 30 -20 0 -33 -3 -29 -7z"/>
<path d="M1860 783 c0 -14 2 -15 9 -4 6 9 18 11 35 7 15 -4 26 -2 26 4 0 5
-16 10 -35 10 -27 0 -35 -4 -35 -17z"/>
<path d="M2000 784 c0 -13 3 -14 15 -4 8 7 24 10 35 7 11 -3 20 -1 20 4 0 5
-16 9 -35 9 -26 0 -35 -4 -35 -16z"/>
<path d="M2172 793 c20 -3 28 -11 31 -31 4 -24 4 -24 6 6 1 30 -1 32 -31 31
-30 -2 -30 -2 -6 -6z"/>
<path d="M2290 770 c0 -16 4 -30 9 -30 4 0 6 11 3 25 -3 20 0 25 17 25 12 0
19 -4 16 -10 -3 -5 -1 -10 4 -10 6 0 11 7 11 15 0 10 -10 15 -30 15 -27 0 -30
-3 -30 -30z"/>
<path d="M2430 785 c0 -13 3 -13 20 -3 17 11 22 10 30 -2 8 -13 10 -12 10 3 0
12 -8 17 -30 17 -20 0 -30 -5 -30 -15z"/>
<path d="M2571 768 c2 -32 2 -32 6 -4 4 24 8 27 29 23 13 -2 27 0 30 4 3 5
-11 9 -30 9 -34 0 -36 -2 -35 -32z"/>
<path d="M90 695 c0 -19 4 -35 8 -35 5 0 7 14 4 30 -4 25 -1 30 16 30 16 0 22
-8 25 -32 4 -32 4 -32 5 5 2 35 0 37 -28 37 -28 0 -30 -3 -30 -35z"/>
<path d="M230 700 c0 -16 4 -30 9 -30 4 0 6 12 3 26 -4 25 -3 26 22 22 14 -3
26 -1 26 3 0 5 -13 9 -30 9 -27 0 -30 -3 -30 -30z"/>
<path d="M370 700 c0 -16 4 -30 9 -30 4 0 6 11 4 24 -4 21 -1 25 23 29 28 4
28 4 -3 6 -30 1 -33 -2 -33 -29z"/>
<path d="M800 722 c0 -5 10 -8 22 -8 15 1 24 -7 29 -24 6 -23 7 -23 8 8 1 29
-2 32 -29 32 -16 0 -30 -4 -30 -8z"/>
<path d="M1220 695 c0 -32 -3 -35 -29 -35 -18 0 -31 -6 -35 -16 -5 -13 -3 -14
6 -6 7 5 24 12 38 14 20 2 26 9 28 36 3 26 7 32 28 32 17 0 24 -6 24 -19 0
-11 -6 -22 -12 -24 -8 -3 -6 -6 5 -6 12 -1 17 7 17 29 0 28 -3 30 -35 30 -33
0 -35 -2 -35 -35z"/>
<path d="M1370 721 c0 -4 12 -6 26 -3 25 4 26 3 22 -22 -3 -14 -1 -26 3 -26 5
0 9 14 9 30 0 27 -3 30 -30 30 -16 0 -30 -4 -30 -9z"/>
<path d="M1651 698 c2 -31 2 -31 6 -5 5 28 37 39 46 15 3 -8 6 -6 6 5 1 12 -7
17 -29 17 -27 0 -30 -3 -29 -32z"/>
<path d="M1792 693 l1 -38 4 34 c4 29 7 32 29 28 13 -2 24 0 24 4 0 5 -13 9
-30 9 -28 0 -30 -2 -28 -37z"/>
<path d="M1931 698 c2 -32 2 -32 6 -5 4 22 9 28 26 25 13 -2 22 -10 22 -20 0
-9 4 -20 8 -24 4 -4 7 7 7 24 0 30 -2 32 -35 32 -33 0 -35 -2 -34 -32z"/>
<path d="M2115 716 c11 -8 16 -19 12 -30 -4 -9 -2 -16 3 -16 6 0 10 14 10 30
0 24 -4 30 -22 30 -21 0 -21 -1 -3 -14z"/>
<path d="M2221 698 c2 -31 2 -31 6 -5 3 19 10 27 25 27 16 0 19 -5 16 -25 -3
-14 -1 -25 3 -25 5 0 9 14 9 30 0 27 -3 30 -30 30 -27 0 -30 -3 -29 -32z"/>
<path d="M2360 700 c0 -16 4 -30 9 -30 4 0 6 12 3 26 -4 21 -1 25 14 22 12 -2
19 -12 18 -26 0 -12 3 -22 8 -22 4 0 8 14 8 30 0 27 -3 30 -30 30 -27 0 -30
-3 -30 -30z"/>
<path d="M2641 698 c2 -31 2 -31 6 -5 3 21 10 27 30 27 23 0 25 -3 19 -30 -3
-19 -2 -29 4 -25 6 3 10 19 10 36 0 27 -3 29 -35 29 -33 0 -35 -2 -34 -32z"/>
<path d="M2780 701 c0 -17 4 -32 8 -35 5 -3 6 8 4 24 -4 25 -1 29 24 33 28 4
28 4 -3 6 -30 1 -33 -2 -33 -28z"/>
<path d="M162 623 l1 -38 4 34 c4 29 7 32 29 28 13 -2 24 0 24 4 0 5 -13 9
-30 9 -28 0 -30 -2 -28 -37z"/>
<path d="M300 625 c0 -19 4 -35 9 -35 6 0 9 12 8 28 -2 22 2 27 21 26 12 0 22
3 22 8 0 4 -13 8 -30 8 -28 0 -30 -3 -30 -35z"/>
<path d="M731 643 c0 -11 3 -13 6 -5 2 6 13 12 24 12 14 0 19 -7 19 -26 0 -23
-3 -26 -25 -22 -14 3 -25 1 -25 -3 0 -5 14 -9 30 -9 28 0 30 3 30 35 0 32 -2
35 -30 35 -22 0 -30 -5 -29 -17z"/>
<path d="M1010 625 c0 -32 2 -35 30 -35 22 0 30 5 29 18 0 10 -3 12 -6 5 -2
-7 -13 -13 -24 -13 -22 0 -28 45 -6 53 7 3 5 6 -5 6 -14 1 -18 -7 -18 -34z"/>
<path d="M1300 651 c0 -4 11 -6 24 -4 21 4 25 1 29 -23 4 -28 4 -28 6 4 1 29
-2 32 -29 32 -16 0 -30 -4 -30 -9z"/>
<path d="M1720 625 c0 -32 2 -35 30 -35 25 0 30 4 29 23 -1 16 -2 18 -6 5 -2
-10 -13 -18 -24 -18 -14 0 -19 7 -19 26 0 23 3 26 25 22 14 -3 25 -1 25 3 0 5
-13 9 -30 9 -28 0 -30 -3 -30 -35z"/>
<path d="M2151 643 c0 -11 3 -13 6 -5 2 6 14 12 25 12 17 0 20 -5 16 -30 -3
-16 -1 -30 4 -30 4 0 8 16 8 35 0 32 -2 35 -30 35 -22 0 -30 -5 -29 -17z"/>
<path d="M2572 628 c2 -28 8 -34 31 -36 15 -2 27 1 27 6 0 5 -11 7 -25 4 -22
-4 -25 -1 -25 23 0 24 3 27 25 23 14 -3 25 -1 25 3 0 5 -14 9 -31 9 -28 0 -30
-2 -27 -32z"/>
<path d="M2710 631 c0 -17 4 -32 8 -35 5 -3 6 8 4 24 -4 26 -1 29 29 33 l34 4
-37 1 c-36 2 -38 0 -38 -27z"/>
<path d="M2860 651 c0 -4 11 -6 25 -3 21 4 25 1 25 -21 0 -14 -6 -28 -12 -30
-8 -3 -6 -6 5 -6 13 -1 17 7 17 34 0 32 -2 35 -30 35 -16 0 -30 -4 -30 -9z"/>
<path d="M920 615 c0 -18 -36 -20 -43 -2 -3 7 -6 5 -6 -5 -1 -13 7 -18 29 -18
23 0 30 4 30 20 0 11 -2 20 -5 20 -3 0 -5 -7 -5 -15z"/>
<path d="M1206 614 c-4 -11 -13 -14 -31 -10 -14 4 -25 2 -25 -4 0 -5 16 -10
35 -10 28 0 35 4 35 20 0 24 -6 26 -14 4z"/>
<path d="M90 555 c0 -19 4 -35 8 -35 5 0 6 14 4 31 -4 26 -2 30 14 27 23 -4
31 -37 12 -49 -10 -7 -9 -9 5 -9 13 0 17 8 17 35 0 32 -2 35 -30 35 -28 0 -30
-3 -30 -35z"/>
<path d="M230 555 c0 -32 2 -35 30 -35 22 0 30 5 29 18 0 10 -3 12 -6 5 -2 -7
-13 -13 -24 -13 -14 0 -19 7 -19 25 0 18 5 25 19 25 11 0 22 -6 24 -12 3 -8 6
-6 6 5 1 12 -7 17 -29 17 -28 0 -30 -3 -30 -35z"/>
<path d="M370 555 c0 -27 4 -35 18 -35 13 0 14 2 4 9 -21 13 -10 44 18 52 23
6 22 7 -7 8 -31 1 -33 -1 -33 -34z"/>
<path d="M510 555 c0 -33 2 -35 35 -35 19 0 35 4 35 8 0 5 -13 7 -30 4 -27 -4
-30 -1 -30 21 0 14 6 28 13 30 7 3 5 6 -5 6 -14 1 -18 -7 -18 -34z"/>
<path d="M943 558 c2 -28 6 -34 30 -36 15 -2 27 1 27 6 0 5 -11 7 -24 5 -21
-4 -25 0 -30 26 l-6 31 3 -32z"/>
<path d="M1082 558 c2 -28 8 -34 31 -36 15 -2 27 1 27 6 0 5 -10 8 -22 8 -19
-1 -23 4 -21 27 1 15 -3 27 -8 27 -6 0 -9 -15 -7 -32z"/>
<path d="M1245 580 c3 -5 13 -10 21 -10 9 0 14 -7 12 -17 -5 -27 -41 -22 -50
7 -6 23 -7 23 -5 -5 2 -26 6 -30 35 -33 31 -3 32 -2 32 32 0 32 -3 36 -26 36
-14 0 -23 -4 -19 -10z"/>
<path d="M1403 583 c15 -4 18 -12 15 -34 -3 -16 -1 -29 4 -29 4 0 8 16 8 35 0
30 -3 35 -22 34 -19 -1 -20 -2 -5 -6z"/>
<path d="M1791 553 c1 -37 2 -37 8 -8 5 23 12 29 29 28 12 -2 22 2 22 7 0 6
-13 10 -30 10 -28 0 -30 -2 -29 -37z"/>
<path d="M1937 583 c-4 -3 -7 -19 -7 -35 0 -27 3 -29 33 -26 25 2 33 8 35 27
2 13 0 27 -5 32 -5 5 -9 -3 -8 -19 0 -21 -5 -28 -24 -30 -22 -3 -23 -1 -18 27
7 32 5 36 -6 24z"/>
<path d="M2640 555 c0 -35 1 -36 33 -33 28 3 32 6 32 33 0 27 -4 30 -32 33
-32 3 -33 2 -33 -33z m58 3 c-2 -15 -10 -23 -23 -23 -13 0 -21 8 -23 23 -3 18
1 22 23 22 22 0 26 -4 23 -22z"/>
<path d="M2780 581 c0 -6 5 -13 10 -16 6 -3 10 -1 10 6 0 7 10 9 25 7 14 -3
25 -1 25 3 0 5 -16 9 -35 9 -19 0 -35 -4 -35 -9z"/>
<path d="M2070 525 c-7 -8 -17 -12 -24 -8 -6 3 -6 0 2 -8 18 -19 15 -47 -5
-52 -14 -4 -12 -5 5 -6 19 -1 22 4 22 32 0 18 5 38 12 45 7 7 9 12 6 12 -3 0
-11 -7 -18 -15z"/>
<path d="M160 486 c0 -33 2 -36 30 -36 17 0 30 4 30 9 0 4 -12 6 -26 3 -25 -4
-26 -3 -22 22 3 14 1 29 -3 32 -5 3 -9 -11 -9 -30z"/>
<path d="M872 488 c-2 -36 0 -38 28 -38 17 0 30 4 30 9 0 4 -11 6 -24 4 -22
-4 -25 -1 -29 28 l-4 34 -1 -37z"/>
<path d="M2432 488 c-2 -36 0 -38 28 -38 17 0 30 4 30 9 0 4 -11 6 -24 4 -22
-4 -25 -1 -29 28 l-4 34 -1 -37z"/>
<path d="M1010 480 c0 -27 3 -30 30 -30 22 0 30 5 29 18 0 10 -3 12 -6 5 -2
-7 -13 -13 -24 -13 -22 0 -27 35 -6 43 7 3 5 6 -5 6 -13 1 -18 -7 -18 -29z"/>
<path d="M1208 488 c-2 -18 -9 -23 -30 -23 -16 1 -28 -3 -28 -7 0 -4 16 -8 35
-8 32 0 35 2 35 30 0 35 -7 40 -12 8z"/>
<path d="M1720 480 c0 -27 3 -30 33 -29 31 2 31 2 3 6 -24 4 -27 8 -23 29 2
13 0 24 -4 24 -5 0 -9 -13 -9 -30z"/>
<path d="M2571 483 c-1 -30 2 -33 29 -33 17 0 30 4 30 9 0 4 -11 6 -24 4 -21
-4 -25 -1 -29 23 -4 28 -4 28 -6 -3z"/>
<path d="M2768 485 c4 -21 1 -25 -21 -25 -14 0 -28 7 -30 15 -4 11 -4 10 -3
-2 1 -13 10 -18 31 -18 25 0 31 4 33 28 2 15 -1 27 -6 27 -5 0 -7 -11 -4 -25z"/>
<path d="M91 413 c-1 -30 2 -33 29 -33 22 0 30 5 29 18 0 10 -3 12 -6 5 -9
-25 -41 -14 -46 15 -4 25 -4 25 -6 -5z"/>
<path d="M230 410 c0 -28 2 -30 38 -28 l37 1 -34 4 c-29 4 -32 7 -28 29 2 13
0 24 -4 24 -5 0 -9 -13 -9 -30z"/>
<path d="M370 410 c0 -28 2 -30 38 -28 l37 1 -34 4 c-29 4 -32 7 -28 29 2 13
0 24 -4 24 -5 0 -9 -13 -9 -30z"/>
<path d="M510 410 c0 -28 2 -30 38 -28 l37 1 -34 4 c-29 4 -32 7 -28 29 2 13
0 24 -4 24 -5 0 -9 -13 -9 -30z"/>
<path d="M698 433 c6 -2 12 -14 12 -25 0 -16 -5 -19 -25 -16 -14 3 -25 1 -25
-3 0 -5 14 -9 30 -9 27 0 30 3 30 30 0 22 -5 30 -17 29 -11 0 -13 -3 -5 -6z"/>
<path d="M940 410 c0 -27 3 -30 30 -30 22 0 30 5 29 18 0 10 -3 12 -6 5 -2 -7
-14 -13 -25 -13 -16 0 -19 5 -16 25 3 14 1 25 -3 25 -5 0 -9 -13 -9 -30z"/>
<path d="M1277 416 c4 -22 1 -25 -28 -29 l-34 -4 38 -1 c35 -2 37 0 37 28 0
17 -4 30 -9 30 -4 0 -6 -11 -4 -24z"/>
<path d="M1930 410 c0 -28 3 -30 35 -30 32 0 35 2 35 30 0 28 -3 30 -35 30
-32 0 -35 -2 -35 -30z m58 -2 c3 -13 -3 -18 -22 -18 -20 0 -26 5 -26 21 0 15
5 20 22 17 13 -2 24 -11 26 -20z"/>
<path d="M2220 410 c0 -27 3 -30 30 -30 27 0 30 3 30 30 0 27 -3 30 -30 30
-27 0 -30 -3 -30 -30z m50 0 c0 -13 -7 -20 -20 -20 -13 0 -20 7 -20 20 0 13 7
20 20 20 13 0 20 -7 20 -20z"/>
<path d="M2361 413 c-1 -31 1 -33 32 -32 29 1 30 2 7 8 -14 4 -27 17 -31 31
-6 23 -7 22 -8 -7z"/>
<path d="M2500 410 c0 -27 3 -30 30 -30 22 0 30 5 29 18 0 10 -3 12 -6 5 -2
-7 -14 -13 -25 -13 -16 0 -19 5 -16 25 3 14 1 25 -3 25 -5 0 -9 -13 -9 -30z"/>
<path d="M2640 409 c0 -28 2 -30 33 -27 27 2 33 8 35 31 2 15 -1 27 -6 27 -5
0 -7 -11 -4 -25 4 -22 1 -25 -23 -25 -24 0 -27 3 -23 25 3 14 1 25 -3 25 -5 0
-9 -14 -9 -31z"/>
<path d="M2781 413 c-1 -31 1 -33 34 -33 32 0 35 2 35 30 0 17 -4 30 -9 30 -4
0 -6 -11 -3 -25 4 -21 1 -25 -21 -25 -20 0 -27 6 -30 28 -4 25 -4 25 -6 -5z"/>
<path d="M2980 416 c0 -19 -6 -26 -27 -29 -26 -4 -26 -4 5 -6 29 -1 32 2 32
29 0 17 -2 30 -5 30 -3 0 -5 -11 -5 -24z"/>
<path d="M160 340 c0 -27 3 -30 30 -30 17 0 30 4 30 9 0 4 -12 6 -26 3 -25 -4
-26 -3 -22 22 3 14 1 26 -3 26 -5 0 -9 -13 -9 -30z"/>
<path d="M300 340 c0 -27 3 -30 33 -29 31 2 31 2 3 6 -24 4 -27 8 -23 29 2 13
0 24 -4 24 -5 0 -9 -13 -9 -30z"/>
<path d="M440 362 c0 -5 14 -7 30 -4 26 4 30 1 30 -18 0 -19 -4 -22 -30 -18
-16 3 -30 1 -30 -4 0 -4 16 -8 35 -8 32 0 35 2 35 30 0 28 -3 30 -35 30 -19 0
-35 -4 -35 -8z"/>
<path d="M1860 340 c0 -28 2 -30 38 -28 36 1 36 1 5 5 -25 3 -33 9 -33 25 0
16 5 19 25 16 14 -3 25 -1 25 3 0 5 -13 9 -30 9 -27 0 -30 -3 -30 -30z"/>
<path d="M2150 361 c0 -4 12 -6 26 -3 25 4 26 3 22 -22 -3 -14 -1 -26 3 -26 5
0 9 14 9 30 0 27 -3 30 -30 30 -16 0 -30 -4 -30 -9z"/>
<path d="M2290 340 c0 -27 3 -30 33 -29 31 2 31 2 3 6 -24 4 -27 8 -23 29 2
13 0 24 -4 24 -5 0 -9 -13 -9 -30z"/>
<path d="M2571 343 c-1 -31 1 -33 32 -32 29 2 29 2 5 6 -20 3 -28 11 -31 31
-4 24 -4 24 -6 -5z"/>
<path d="M2758 363 c6 -2 12 -13 12 -24 0 -29 -47 -26 -53 4 -4 19 -4 18 -6
-5 -1 -26 2 -28 34 -28 32 0 35 2 35 30 0 22 -5 30 -17 29 -11 0 -13 -3 -5 -6z"/>
<path d="M91 273 c-1 -30 2 -33 29 -33 22 0 30 5 29 18 0 10 -3 12 -6 5 -9
-25 -41 -14 -46 15 -4 25 -4 25 -6 -5z"/>
<path d="M371 273 c-1 -31 1 -33 32 -32 29 2 29 2 5 6 -20 3 -28 11 -31 31 -4
24 -4 24 -6 -5z"/>
<path d="M833 293 c25 -7 21 -41 -5 -46 -20 -4 -19 -4 5 -6 24 -1 27 3 27 29
0 25 -4 30 -22 29 -17 -1 -19 -2 -5 -6z"/>
<path d="M941 273 c-1 -30 2 -33 29 -33 17 0 30 4 30 9 0 4 -11 6 -24 4 -21
-4 -25 -1 -29 23 -4 28 -4 28 -6 -3z"/>
<path d="M2407 276 c4 -21 1 -25 -23 -29 -28 -4 -28 -4 4 -6 29 -1 32 2 32 29
0 17 -4 30 -9 30 -4 0 -6 -11 -4 -24z"/>
<path d="M2500 270 c0 -27 3 -30 30 -30 27 0 30 3 29 33 -2 30 -2 30 -6 5 -3
-20 -10 -28 -24 -28 -22 0 -27 35 -6 43 7 3 5 6 -5 6 -13 1 -18 -7 -18 -29z"/>
<path d="M2640 270 c0 -27 3 -30 33 -29 30 2 30 2 5 6 -20 3 -28 10 -28 25 0
17 5 20 30 16 17 -3 30 -1 30 4 0 4 -16 8 -35 8 -32 0 -35 -2 -35 -30z"/>
<path d="M1527 259 c14 -13 82 -15 69 -2 -4 4 -23 8 -42 9 -19 0 -31 -3 -27
-7z"/>
<path d="M44 223 c24 -4 27 -8 23 -29 -2 -13 0 -24 4 -24 5 0 9 14 9 30 0 27
-3 30 -32 29 -32 -2 -32 -2 -4 -6z"/>
<path d="M300 200 c0 -28 2 -30 38 -28 36 1 36 1 5 5 -24 3 -33 9 -33 23 0 14
9 20 33 23 31 4 31 4 -5 5 -36 2 -38 0 -38 -28z"/>
<path d="M440 222 c0 -5 14 -7 30 -4 25 4 30 1 30 -16 0 -11 -8 -23 -17 -25
-14 -4 -12 -5 5 -6 18 -1 22 4 22 29 0 28 -3 30 -35 30 -19 0 -35 -4 -35 -8z"/>
<path d="M768 223 c6 -2 12 -14 12 -25 0 -16 -5 -19 -25 -16 -14 3 -25 1 -25
-3 0 -5 14 -9 30 -9 27 0 30 3 30 30 0 22 -5 30 -17 29 -11 0 -13 -3 -5 -6z"/>
<path d="M2290 200 c0 -16 4 -30 8 -30 5 0 8 10 8 22 -1 35 32 36 37 1 4 -27
4 -27 6 5 1 29 -2 32 -29 32 -27 0 -30 -3 -30 -30z"/>
<path d="M90 130 c0 -16 4 -30 9 -30 4 0 6 11 3 25 -3 21 0 25 18 25 18 0 21
-4 18 -25 -3 -14 -1 -25 3 -25 5 0 9 14 9 30 0 27 -3 30 -30 30 -27 0 -30 -3
-30 -30z"/>
<path d="M230 130 c0 -27 3 -30 30 -30 17 0 30 4 30 9 0 4 -11 6 -25 3 -21 -3
-25 0 -25 18 0 18 4 22 25 18 14 -3 28 -1 31 3 3 5 -11 9 -30 9 -33 0 -36 -2
-36 -30z"/>
<path d="M371 128 c2 -30 2 -30 6 -6 3 20 11 28 31 31 24 4 24 4 -5 6 -31 1
-33 -1 -32 -31z"/>
<path d="M684 153 c24 -4 27 -8 23 -29 -2 -13 0 -24 4 -24 5 0 9 14 9 30 0 27
-3 30 -32 29 -32 -2 -32 -2 -4 -6z"/>
<path d="M940 130 c0 -22 5 -30 18 -29 10 0 12 3 5 6 -7 2 -13 14 -13 25 0 16
5 19 25 16 14 -3 25 -1 25 3 0 5 -13 9 -30 9 -27 0 -30 -3 -30 -30z"/>
<path d="M2360 130 c0 -16 4 -30 9 -30 4 0 6 11 4 24 -4 21 -1 25 23 29 28 4
28 4 -3 6 -30 1 -33 -2 -33 -29z"/>
<path d="M160 60 c0 -16 4 -30 9 -30 4 0 6 12 3 26 -4 25 -3 26 22 22 14 -3
26 -1 26 3 0 5 -13 9 -30 9 -27 0 -30 -3 -30 -30z"/>
<path d="M300 60 c0 -16 4 -30 9 -30 4 0 6 11 4 24 -4 22 -1 25 28 29 l34 4
-37 1 c-36 2 -38 0 -38 -28z"/>
<path d="M470 81 c17 -5 25 -14 24 -29 0 -12 3 -22 8 -22 4 0 8 14 8 30 0 27
-3 30 -32 29 -31 -1 -31 -2 -8 -8z"/>
<path d="M2710 60 c0 -16 4 -30 8 -30 5 0 8 10 8 23 -1 18 4 22 27 22 15 -1
27 3 27 7 0 4 -16 8 -35 8 -32 0 -35 -2 -35 -30z"/>
</g>
</svg>
